<svg xmlns="http://www.w3.org/2000/svg" width="72.366" height="84.427" viewBox="0 0 72.366 84.427">
  <path id="Icon_ionic-md-bus" data-name="Icon ionic-md-bus" d="M5.625,67.82c0,4.221,2.85,5.393,5.482,7.975v8.442a4.56,4.56,0,0,0,4.386,4.69h4.386a4.56,4.56,0,0,0,4.386-4.69v-4.69H59.351v4.69a4.56,4.56,0,0,0,4.386,4.69h4.386a4.56,4.56,0,0,0,4.386-4.69V75.794c2.632-2.581,5.482-3.987,5.482-7.975V23.042C77.991,6.625,61.1,4.5,41.808,4.5S5.625,6.625,5.625,23.042Zm16.447,3.515c-3.728,0-6.579-3.048-6.579-7.036s2.85-7.036,6.579-7.036S28.65,60.313,28.65,64.3,25.8,71.335,22.072,71.335Zm39.472,0c-3.728,0-6.579-3.048-6.579-7.036s2.85-7.036,6.579-7.036,6.579,3.048,6.579,7.036S65.273,71.335,61.544,71.335Zm6.579-26.967H15.493V20.916h52.63Z" transform="translate(-5.625 -4.5)" fill="#fff"/>
</svg>
