<svg xmlns="http://www.w3.org/2000/svg" width="260" height="260" viewBox="0 0 260 260">
  <g id="그룹_404" data-name="그룹 404" transform="translate(-167 -460)">
    <g id="사각형_203" data-name="사각형 203" transform="translate(177 470)" stroke="#6d6d6d" stroke-width="10">
      <rect width="240" height="240" rx="30" stroke="none"/>
      <rect x="-5" y="-5" width="250" height="250" rx="35" fill="none"/>
    </g>
    <path id="패스_87" data-name="패스 87" d="M51.445,47.813h-.393a4.135,4.135,0,1,1,4.327-4.327v.393a3.935,3.935,0,0,1-3.934,3.934" transform="translate(338.431 604.544)" fill="#6d6d6d"/>
    <path id="패스_88" data-name="패스 88" d="M168.734,47.52h-.775a3.934,3.934,0,0,1,0-7.868h.775a3.934,3.934,0,0,1,0,7.868m-12.384,0h-.771a3.934,3.934,0,0,1,0-7.868h.771a3.934,3.934,0,1,1,0,7.868m-12.38,0h-.775a3.934,3.934,0,1,1,0-7.868h.775a3.934,3.934,0,1,1,0,7.868m-12.384,0h-.775a3.934,3.934,0,1,1,0-7.868h.775a3.934,3.934,0,1,1,0,7.868m-12.38,0h-.775a3.934,3.934,0,1,1,0-7.868h.775a3.934,3.934,0,0,1,0,7.868m-12.384,0h-.775a3.934,3.934,0,0,1,0-7.868h.775a3.934,3.934,0,0,1,0,7.868m-12.384,0h-.775a3.934,3.934,0,1,1,0-7.868h.775a3.934,3.934,0,1,1,0,7.868m-12.38,0h-.775a3.934,3.934,0,0,1,0-7.868h.775a3.934,3.934,0,1,1,0,7.868m-12.384,0H68.9a3.934,3.934,0,1,1,0-7.868h.771a3.934,3.934,0,0,1,0,7.868m-12.384,0h-.771a3.934,3.934,0,0,1,0-7.868h.771a3.934,3.934,0,1,1,0,7.868m-12.38,0h-.775a3.934,3.934,0,0,1,0-7.868h.775a3.934,3.934,0,1,1,0,7.868m-12.384,0h-.771a3.934,3.934,0,1,1,0-7.868h.771a3.934,3.934,0,1,1,0,7.868m-12.384,0h-.771a3.934,3.934,0,1,1,0-7.868h.771a3.934,3.934,0,1,1,0,7.868m-12.38,0H6.985a3.934,3.934,0,1,1,0-7.868H7.76a3.934,3.934,0,0,1,0,7.868" transform="translate(209.141 604.837)" fill="#6d6d6d"/>
    <path id="패스_89" data-name="패스 89" d="M4.327,47.813H3.934A3.935,3.935,0,0,1,0,43.879v-.393a3.932,3.932,0,0,1,6.9-2.577,3.932,3.932,0,0,1-2.577,6.9" transform="translate(200.189 604.544)" fill="#6d6d6d"/>
    <path id="패스_90" data-name="패스 90" d="M3.935,151.658A3.93,3.93,0,0,1,0,147.724v-.787a3.934,3.934,0,1,1,7.868,0v.787a3.933,3.933,0,0,1-3.934,3.934m185.746-.13a3.938,3.938,0,0,1-3.934-3.934v-.787a3.934,3.934,0,0,1,7.868,0v.787a3.93,3.93,0,0,1-3.934,3.934M3.935,139.069A3.933,3.933,0,0,1,0,135.135v-.791a3.934,3.934,0,1,1,7.868,0v.791a3.935,3.935,0,0,1-3.934,3.934m185.746-.134A3.935,3.935,0,0,1,185.747,135v-.787a3.934,3.934,0,1,1,7.868,0V135a3.928,3.928,0,0,1-3.934,3.934M3.935,126.477A3.933,3.933,0,0,1,0,122.543v-.787a3.934,3.934,0,0,1,7.868,0v.787a3.935,3.935,0,0,1-3.934,3.934m185.746-.13a3.938,3.938,0,0,1-3.934-3.934v-.787a3.934,3.934,0,0,1,7.868,0v.787a3.93,3.93,0,0,1-3.934,3.934M3.935,113.884A3.933,3.933,0,0,1,0,109.95v-.787a3.934,3.934,0,1,1,7.868,0v.787a3.935,3.935,0,0,1-3.934,3.934m185.746-.13a3.938,3.938,0,0,1-3.934-3.934v-.787a3.934,3.934,0,1,1,7.868,0v.787a3.93,3.93,0,0,1-3.934,3.934M3.935,101.292A3.933,3.933,0,0,1,0,97.358v-.787a3.934,3.934,0,1,1,7.868,0v.787a3.935,3.935,0,0,1-3.934,3.934m185.746-.13a3.935,3.935,0,0,1-3.934-3.934v-.787a3.934,3.934,0,1,1,7.868,0v.787a3.928,3.928,0,0,1-3.934,3.934M3.935,88.7A3.93,3.93,0,0,1,0,84.765v-.787a3.934,3.934,0,0,1,7.868,0v.787A3.933,3.933,0,0,1,3.935,88.7m185.746-.13a3.938,3.938,0,0,1-3.934-3.934v-.787a3.934,3.934,0,1,1,7.868,0v.787a3.93,3.93,0,0,1-3.934,3.934M3.935,76.11A3.933,3.933,0,0,1,0,72.176v-.791a3.934,3.934,0,0,1,7.868,0v.791A3.935,3.935,0,0,1,3.935,76.11m185.746-.134a3.935,3.935,0,0,1-3.934-3.934V71.26a3.934,3.934,0,1,1,7.868,0v.783a3.928,3.928,0,0,1-3.934,3.934M3.935,63.518A3.933,3.933,0,0,1,0,59.584V58.8a3.934,3.934,0,1,1,7.868,0v.787a3.935,3.935,0,0,1-3.934,3.934m185.746-.13a3.938,3.938,0,0,1-3.934-3.934v-.787a3.934,3.934,0,1,1,7.868,0v.787a3.93,3.93,0,0,1-3.934,3.934M3.935,50.925A3.93,3.93,0,0,1,0,46.991V46.2a3.934,3.934,0,0,1,7.868,0v.787a3.933,3.933,0,0,1-3.934,3.934m185.746-.13a3.938,3.938,0,0,1-3.934-3.934v-.787a3.934,3.934,0,0,1,7.868,0v.787a3.93,3.93,0,0,1-3.934,3.934M3.935,38.332A3.933,3.933,0,0,1,0,34.4v-.787a3.934,3.934,0,0,1,7.868,0V34.4a3.935,3.935,0,0,1-3.934,3.934m185.746-.13a3.935,3.935,0,0,1-3.934-3.934v-.787a3.934,3.934,0,0,1,7.868,0v.787a3.928,3.928,0,0,1-3.934,3.934M4.372,25.771a4.1,4.1,0,0,1-.783-.079,3.938,3.938,0,0,1-3.08-4.634l.2-.909a3.933,3.933,0,1,1,7.648,1.837l-.138.629a3.934,3.934,0,0,1-3.851,3.155m184.849-.126a3.929,3.929,0,0,1-3.847-3.135l-.146-.637a3.933,3.933,0,1,1,7.644-1.857l.2.9a3.932,3.932,0,0,1-3.049,4.65,4.067,4.067,0,0,1-.806.083M10.111,14.756A3.932,3.932,0,0,1,7.259,8.116l.669-.673A3.932,3.932,0,1,1,13.4,13.088l-.441.445a3.913,3.913,0,0,1-2.852,1.223m173.307-.09a3.929,3.929,0,0,1-2.829-1.2L180.117,13a3.935,3.935,0,1,1,5.48-5.649l.637.641a3.934,3.934,0,0,1-2.817,6.672M20.851,8.525A3.936,3.936,0,0,1,19.9.771l.924-.208a3.933,3.933,0,0,1,1.6,7.7l-.614.142a4,4,0,0,1-.956.118m151.784-.035a4.046,4.046,0,0,1-.932-.11l-.618-.138A3.935,3.935,0,0,1,172.647.527l.913.208a3.932,3.932,0,0,1-.924,7.754m-12.541-.622h-.787a3.934,3.934,0,1,1,0-7.868h.787a3.934,3.934,0,0,1,0,7.868m-12.593,0h-.787a3.934,3.934,0,1,1,0-7.868h.787a3.934,3.934,0,0,1,0,7.868m-12.593,0h-.787a3.934,3.934,0,1,1,0-7.868h.787a3.934,3.934,0,1,1,0,7.868m-12.589,0h-.787a3.934,3.934,0,0,1,0-7.868h.787a3.934,3.934,0,0,1,0,7.868m-12.593,0h-.791a3.934,3.934,0,1,1,0-7.868h.791a3.934,3.934,0,0,1,0,7.868m-12.593,0h-.783a3.934,3.934,0,1,1,0-7.868h.783a3.934,3.934,0,1,1,0,7.868m-12.589,0h-.787a3.934,3.934,0,1,1,0-7.868h.787a3.934,3.934,0,0,1,0,7.868m-12.589,0h-.795a3.934,3.934,0,0,1,0-7.868h.795a3.934,3.934,0,1,1,0,7.868m-12.6,0h-.783a3.934,3.934,0,0,1,0-7.868h.783a3.934,3.934,0,0,1,0,7.868m-12.593,0h-.787a3.934,3.934,0,0,1,0-7.868h.787a3.934,3.934,0,1,1,0,7.868m-12.589,0h-.791a3.934,3.934,0,0,1,0-7.868h.791a3.934,3.934,0,0,1,0,7.868" transform="translate(200.192 488.5)" fill="#6d6d6d"/>
    <path id="패스_91" data-name="패스 91" d="M4.327,34.477H3.934a3.934,3.934,0,1,1,0-7.868h.393a3.934,3.934,0,1,1,0,7.868" transform="translate(200.189 566.57)" fill="#6d6d6d"/>
    <path id="패스_92" data-name="패스 92" d="M168.734,34.477h-.775a3.934,3.934,0,0,1,0-7.868h.775a3.934,3.934,0,0,1,0,7.868m-12.384,0h-.771a3.934,3.934,0,0,1,0-7.868h.771a3.934,3.934,0,1,1,0,7.868m-12.38,0h-.775a3.934,3.934,0,1,1,0-7.868h.775a3.934,3.934,0,1,1,0,7.868m-12.384,0h-.775a3.934,3.934,0,1,1,0-7.868h.775a3.934,3.934,0,1,1,0,7.868m-12.38,0h-.775a3.934,3.934,0,1,1,0-7.868h.775a3.934,3.934,0,0,1,0,7.868m-12.384,0h-.775a3.934,3.934,0,0,1,0-7.868h.775a3.934,3.934,0,0,1,0,7.868m-12.384,0h-.775a3.934,3.934,0,1,1,0-7.868h.775a3.934,3.934,0,1,1,0,7.868m-12.38,0h-.775a3.934,3.934,0,0,1,0-7.868h.775a3.934,3.934,0,1,1,0,7.868m-12.384,0H68.9a3.934,3.934,0,1,1,0-7.868h.771a3.934,3.934,0,0,1,0,7.868m-12.384,0h-.771a3.934,3.934,0,0,1,0-7.868h.771a3.934,3.934,0,1,1,0,7.868m-12.38,0h-.775a3.934,3.934,0,0,1,0-7.868h.775a3.934,3.934,0,1,1,0,7.868m-12.384,0h-.771a3.934,3.934,0,1,1,0-7.868h.771a3.934,3.934,0,1,1,0,7.868m-12.384,0h-.771a3.934,3.934,0,1,1,0-7.868h.771a3.934,3.934,0,1,1,0,7.868m-12.38,0H6.985a3.934,3.934,0,1,1,0-7.868H7.76a3.934,3.934,0,1,1,0,7.868" transform="translate(209.141 566.57)" fill="#6d6d6d"/>
    <path id="패스_93" data-name="패스 93" d="M51.445,34.477h-.393a3.934,3.934,0,0,1,0-7.868h.393a3.934,3.934,0,1,1,0,7.868" transform="translate(338.431 566.57)" fill="#6d6d6d"/>
    <path id="패스_94" data-name="패스 94" d="M27.543,8.261a3.935,3.935,0,0,1-3.934-3.934V3.934a3.934,3.934,0,1,1,7.868,0v.393a3.935,3.935,0,0,1-3.934,3.934" transform="translate(269.457 488.5)" fill="#6d6d6d"/>
    <path id="패스_95" data-name="패스 95" d="M27.543,90.435A3.933,3.933,0,0,1,23.609,86.5v-.818a3.934,3.934,0,1,1,7.868,0V86.5a3.933,3.933,0,0,1-3.934,3.934m0-13.088a3.935,3.935,0,0,1-3.934-3.934v-.818a3.934,3.934,0,1,1,7.868,0v.818a3.935,3.935,0,0,1-3.934,3.934m0-13.088a3.935,3.935,0,0,1-3.934-3.934v-.818a3.934,3.934,0,0,1,7.868,0v.818a3.935,3.935,0,0,1-3.934,3.934m0-13.088a3.935,3.935,0,0,1-3.934-3.934v-.818a3.934,3.934,0,1,1,7.868,0v.818a3.935,3.935,0,0,1-3.934,3.934m0-13.088a3.933,3.933,0,0,1-3.934-3.934V33.33a3.934,3.934,0,1,1,7.868,0v.818a3.933,3.933,0,0,1-3.934,3.934m0-13.088a3.935,3.935,0,0,1-3.934-3.934v-.818a3.934,3.934,0,1,1,7.868,0v.818a3.935,3.935,0,0,1-3.934,3.934m0-13.088a3.935,3.935,0,0,1-3.934-3.934V7.153a3.934,3.934,0,1,1,7.868,0v.818a3.935,3.935,0,0,1-3.934,3.934" transform="translate(269.457 497.944)" fill="#6d6d6d"/>
    <path id="패스_96" data-name="패스 96" d="M27.543,34.77a3.935,3.935,0,0,1-3.934-3.934v-.393a3.934,3.934,0,1,1,7.868,0v.393a3.935,3.935,0,0,1-3.934,3.934" transform="translate(269.457 566.276)" fill="#6d6d6d"/>
    <path id="패스_97" data-name="패스 97" d="M16.977,34.724a3.935,3.935,0,0,1-3.934-3.934,4.108,4.108,0,0,1,3.934-4.131A3.772,3.772,0,0,1,20.911,30.4v.393a3.935,3.935,0,0,1-3.934,3.934" transform="translate(238.457 566.716)" fill="#6d6d6d"/>
    <path id="패스_98" data-name="패스 98" d="M16.977,64.1a3.933,3.933,0,0,1-3.934-3.934v-.8a3.934,3.934,0,0,1,7.868,0v.8A3.933,3.933,0,0,1,16.977,64.1m0-12.829a3.935,3.935,0,0,1-3.934-3.934v-.8a3.934,3.934,0,1,1,7.868,0v.8a3.935,3.935,0,0,1-3.934,3.934m0-12.833A3.935,3.935,0,0,1,13.043,34.5v-.8a3.934,3.934,0,0,1,7.868,0v.8a3.935,3.935,0,0,1-3.934,3.934" transform="translate(238.457 575.835)" fill="#6d6d6d"/>
    <path id="패스_99" data-name="패스 99" d="M16.977,47.813a3.935,3.935,0,0,1-3.934-3.934v-.393a3.934,3.934,0,0,1,7.868,0v.393a3.935,3.935,0,0,1-3.934,3.934" transform="translate(238.457 604.544)" fill="#6d6d6d"/>
    <path id="패스_100" data-name="패스 100" d="M38.891,34.724a3.933,3.933,0,0,1-3.934-3.934,4.105,4.105,0,0,1,3.934-4.131A3.775,3.775,0,0,1,42.825,30.4v.393a3.938,3.938,0,0,1-3.934,3.934" transform="translate(302.752 566.716)" fill="#6d6d6d"/>
    <path id="패스_101" data-name="패스 101" d="M38.891,64.1a3.93,3.93,0,0,1-3.934-3.934v-.8a3.934,3.934,0,0,1,7.868,0v.8A3.935,3.935,0,0,1,38.891,64.1m0-12.829a3.933,3.933,0,0,1-3.934-3.934v-.8a3.934,3.934,0,1,1,7.868,0v.8a3.938,3.938,0,0,1-3.934,3.934m0-12.833A3.933,3.933,0,0,1,34.957,34.5v-.8a3.934,3.934,0,0,1,7.868,0v.8a3.938,3.938,0,0,1-3.934,3.934" transform="translate(302.752 575.835)" fill="#6d6d6d"/>
    <path id="패스_102" data-name="패스 102" d="M38.891,47.813a3.933,3.933,0,0,1-3.934-3.934v-.393a3.934,3.934,0,0,1,7.868,0v.393a3.938,3.938,0,0,1-3.934,3.934" transform="translate(302.752 604.544)" fill="#6d6d6d"/>
    <path id="패스_103" data-name="패스 103" d="M17.371,41h-.393a3.934,3.934,0,1,1,0-7.868h.393a3.934,3.934,0,1,1,0,7.868" transform="translate(238.46 585.702)" fill="#6d6d6d"/>
    <path id="패스_104" data-name="패스 104" d="M82.345,41h-.771a3.934,3.934,0,1,1,0-7.868h.771a3.934,3.934,0,1,1,0,7.868M70.031,41H69.26a3.934,3.934,0,0,1,0-7.868h.771a3.934,3.934,0,0,1,0,7.868M57.718,41h-.767a3.934,3.934,0,1,1,0-7.868h.767a3.934,3.934,0,1,1,0,7.868M45.4,41h-.767a3.934,3.934,0,0,1,0-7.868H45.4A3.934,3.934,0,1,1,45.4,41M33.091,41h-.767a3.934,3.934,0,1,1,0-7.868h.767a3.934,3.934,0,1,1,0,7.868M20.782,41h-.771a3.934,3.934,0,1,1,0-7.868h.771a3.934,3.934,0,1,1,0,7.868" transform="translate(247.358 585.702)" fill="#6d6d6d"/>
    <path id="패스_105" data-name="패스 105" d="M39.187,41h-.4a3.934,3.934,0,0,1,0-7.868h.4a3.934,3.934,0,1,1,0,7.868" transform="translate(302.455 585.702)" fill="#6d6d6d"/>
    <path id="패스_106" data-name="패스 106" d="M7.054,76.834A3.935,3.935,0,0,1,3.12,72.9v-.787a3.934,3.934,0,1,1,7.868,0V72.9a3.935,3.935,0,0,1-3.934,3.934m0-12.589A3.935,3.935,0,0,1,3.12,60.311v-.787a3.934,3.934,0,0,1,7.868,0v.787a3.935,3.935,0,0,1-3.934,3.934m0-12.589A3.935,3.935,0,0,1,3.12,47.723v-.787a3.934,3.934,0,0,1,7.868,0v.787a3.935,3.935,0,0,1-3.934,3.934" transform="translate(209.343 614.666)" fill="#6d6d6d"/>
    <path id="패스_107" data-name="패스 107" d="M10.206,76.834A3.935,3.935,0,0,1,6.272,72.9v-.787a3.934,3.934,0,1,1,7.868,0V72.9a3.935,3.935,0,0,1-3.934,3.934m0-12.589a3.935,3.935,0,0,1-3.934-3.934v-.787a3.934,3.934,0,0,1,7.868,0v.787a3.935,3.935,0,0,1-3.934,3.934m0-12.589a3.935,3.935,0,0,1-3.934-3.934v-.787a3.934,3.934,0,0,1,7.868,0v.787a3.935,3.935,0,0,1-3.934,3.934" transform="translate(218.591 614.666)" fill="#6d6d6d"/>
    <path id="패스_108" data-name="패스 108" d="M44.814,76.834A3.935,3.935,0,0,1,40.88,72.9v-.787a3.934,3.934,0,1,1,7.868,0V72.9a3.935,3.935,0,0,1-3.934,3.934m0-12.589a3.935,3.935,0,0,1-3.934-3.934v-.787a3.934,3.934,0,0,1,7.868,0v.787a3.935,3.935,0,0,1-3.934,3.934m0-12.589a3.935,3.935,0,0,1-3.934-3.934v-.787a3.934,3.934,0,0,1,7.868,0v.787a3.935,3.935,0,0,1-3.934,3.934" transform="translate(320.129 614.666)" fill="#6d6d6d"/>
    <path id="패스_109" data-name="패스 109" d="M47.967,76.834A3.935,3.935,0,0,1,44.033,72.9v-.787a3.934,3.934,0,1,1,7.868,0V72.9a3.935,3.935,0,0,1-3.934,3.934m0-12.589a3.935,3.935,0,0,1-3.934-3.934v-.787a3.934,3.934,0,1,1,7.868,0v.787a3.935,3.935,0,0,1-3.934,3.934m0-12.589a3.935,3.935,0,0,1-3.934-3.934v-.787a3.934,3.934,0,1,1,7.868,0v.787a3.935,3.935,0,0,1-3.934,3.934" transform="translate(329.38 614.666)" fill="#6d6d6d"/>
  </g>
</svg>
