<svg xmlns="http://www.w3.org/2000/svg" xmlns:xlink="http://www.w3.org/1999/xlink" width="260" height="260" viewBox="0 0 260 260">
  <defs>
    <filter id="패스_87" x="196.049" y="161.596" width="53.261" height="53.261" filterUnits="userSpaceOnUse">
      <feOffset input="SourceAlpha"/>
      <feGaussianBlur stdDeviation="7.5" result="blur"/>
      <feFlood flood-color="red"/>
      <feComposite operator="in" in2="blur"/>
      <feComposite in="SourceGraphic"/>
    </filter>
    <filter id="패스_88" x="22.692" y="161.989" width="214.617" height="52.868" filterUnits="userSpaceOnUse">
      <feOffset input="SourceAlpha"/>
      <feGaussianBlur stdDeviation="7.5" result="blur-2"/>
      <feFlood flood-color="red"/>
      <feComposite operator="in" in2="blur-2"/>
      <feComposite in="SourceGraphic"/>
    </filter>
    <filter id="패스_89" x="10.689" y="161.596" width="53.261" height="53.261" filterUnits="userSpaceOnUse">
      <feOffset input="SourceAlpha"/>
      <feGaussianBlur stdDeviation="7.5" result="blur-3"/>
      <feFlood flood-color="red"/>
      <feComposite operator="in" in2="blur-3"/>
      <feComposite in="SourceGraphic"/>
    </filter>
    <filter id="패스_90" x="10.693" y="6" width="238.614" height="196.658" filterUnits="userSpaceOnUse">
      <feOffset input="SourceAlpha"/>
      <feGaussianBlur stdDeviation="7.5" result="blur-4"/>
      <feFlood flood-color="red"/>
      <feComposite operator="in" in2="blur-4"/>
      <feComposite in="SourceGraphic"/>
    </filter>
    <filter id="패스_91" x="10.689" y="110.679" width="53.261" height="52.868" filterUnits="userSpaceOnUse">
      <feOffset input="SourceAlpha"/>
      <feGaussianBlur stdDeviation="7.5" result="blur-5"/>
      <feFlood flood-color="red"/>
      <feComposite operator="in" in2="blur-5"/>
      <feComposite in="SourceGraphic"/>
    </filter>
    <filter id="패스_92" x="22.692" y="110.679" width="214.617" height="52.868" filterUnits="userSpaceOnUse">
      <feOffset input="SourceAlpha"/>
      <feGaussianBlur stdDeviation="7.5" result="blur-6"/>
      <feFlood flood-color="red"/>
      <feComposite operator="in" in2="blur-6"/>
      <feComposite in="SourceGraphic"/>
    </filter>
    <filter id="패스_93" x="196.049" y="110.679" width="53.261" height="52.868" filterUnits="userSpaceOnUse">
      <feOffset input="SourceAlpha"/>
      <feGaussianBlur stdDeviation="7.5" result="blur-7"/>
      <feFlood flood-color="red"/>
      <feComposite operator="in" in2="blur-7"/>
      <feComposite in="SourceGraphic"/>
    </filter>
    <filter id="패스_94" x="103.566" y="6" width="52.868" height="53.261" filterUnits="userSpaceOnUse">
      <feOffset input="SourceAlpha"/>
      <feGaussianBlur stdDeviation="7.5" result="blur-8"/>
      <feFlood flood-color="red"/>
      <feComposite operator="in" in2="blur-8"/>
      <feComposite in="SourceGraphic"/>
    </filter>
    <filter id="패스_95" x="103.566" y="18.663" width="52.868" height="132.216" filterUnits="userSpaceOnUse">
      <feOffset input="SourceAlpha"/>
      <feGaussianBlur stdDeviation="7.5" result="blur-9"/>
      <feFlood flood-color="red"/>
      <feComposite operator="in" in2="blur-9"/>
      <feComposite in="SourceGraphic"/>
    </filter>
    <filter id="패스_96" x="103.566" y="110.285" width="52.868" height="53.261" filterUnits="userSpaceOnUse">
      <feOffset input="SourceAlpha"/>
      <feGaussianBlur stdDeviation="7.5" result="blur-10"/>
      <feFlood flood-color="red"/>
      <feComposite operator="in" in2="blur-10"/>
      <feComposite in="SourceGraphic"/>
    </filter>
    <filter id="패스_97" x="62" y="110.875" width="52.868" height="53.065" filterUnits="userSpaceOnUse">
      <feOffset input="SourceAlpha"/>
      <feGaussianBlur stdDeviation="7.5" result="blur-11"/>
      <feFlood flood-color="red"/>
      <feComposite operator="in" in2="blur-11"/>
      <feComposite in="SourceGraphic"/>
    </filter>
    <filter id="패스_98" x="62" y="123.102" width="52.868" height="79.332" filterUnits="userSpaceOnUse">
      <feOffset input="SourceAlpha"/>
      <feGaussianBlur stdDeviation="7.5" result="blur-12"/>
      <feFlood flood-color="red"/>
      <feComposite operator="in" in2="blur-12"/>
      <feComposite in="SourceGraphic"/>
    </filter>
    <filter id="패스_99" x="62" y="161.596" width="52.868" height="53.261" filterUnits="userSpaceOnUse">
      <feOffset input="SourceAlpha"/>
      <feGaussianBlur stdDeviation="7.5" result="blur-13"/>
      <feFlood flood-color="red"/>
      <feComposite operator="in" in2="blur-13"/>
      <feComposite in="SourceGraphic"/>
    </filter>
    <filter id="패스_100" x="148.209" y="110.875" width="52.868" height="53.065" filterUnits="userSpaceOnUse">
      <feOffset input="SourceAlpha"/>
      <feGaussianBlur stdDeviation="7.5" result="blur-14"/>
      <feFlood flood-color="red"/>
      <feComposite operator="in" in2="blur-14"/>
      <feComposite in="SourceGraphic"/>
    </filter>
    <filter id="패스_101" x="148.209" y="123.102" width="52.868" height="79.332" filterUnits="userSpaceOnUse">
      <feOffset input="SourceAlpha"/>
      <feGaussianBlur stdDeviation="7.5" result="blur-15"/>
      <feFlood flood-color="red"/>
      <feComposite operator="in" in2="blur-15"/>
      <feComposite in="SourceGraphic"/>
    </filter>
    <filter id="패스_102" x="148.209" y="161.596" width="52.868" height="53.261" filterUnits="userSpaceOnUse">
      <feOffset input="SourceAlpha"/>
      <feGaussianBlur stdDeviation="7.5" result="blur-16"/>
      <feFlood flood-color="red"/>
      <feComposite operator="in" in2="blur-16"/>
      <feComposite in="SourceGraphic"/>
    </filter>
    <filter id="패스_103" x="62.004" y="136.332" width="53.261" height="52.868" filterUnits="userSpaceOnUse">
      <feOffset input="SourceAlpha"/>
      <feGaussianBlur stdDeviation="7.5" result="blur-17"/>
      <feFlood flood-color="red"/>
      <feComposite operator="in" in2="blur-17"/>
      <feComposite in="SourceGraphic"/>
    </filter>
    <filter id="패스_104" x="73.935" y="136.332" width="115.201" height="52.868" filterUnits="userSpaceOnUse">
      <feOffset input="SourceAlpha"/>
      <feGaussianBlur stdDeviation="7.5" result="blur-18"/>
      <feFlood flood-color="red"/>
      <feComposite operator="in" in2="blur-18"/>
      <feComposite in="SourceGraphic"/>
    </filter>
    <filter id="패스_105" x="147.811" y="136.332" width="53.265" height="52.868" filterUnits="userSpaceOnUse">
      <feOffset input="SourceAlpha"/>
      <feGaussianBlur stdDeviation="7.5" result="blur-19"/>
      <feFlood flood-color="red"/>
      <feComposite operator="in" in2="blur-19"/>
      <feComposite in="SourceGraphic"/>
    </filter>
    <filter id="패스_106" x="22.963" y="175.168" width="52.868" height="78.832" filterUnits="userSpaceOnUse">
      <feOffset input="SourceAlpha"/>
      <feGaussianBlur stdDeviation="7.5" result="blur-20"/>
      <feFlood flood-color="red"/>
      <feComposite operator="in" in2="blur-20"/>
      <feComposite in="SourceGraphic"/>
    </filter>
    <filter id="패스_107" x="35.363" y="175.168" width="52.868" height="78.832" filterUnits="userSpaceOnUse">
      <feOffset input="SourceAlpha"/>
      <feGaussianBlur stdDeviation="7.5" result="blur-21"/>
      <feFlood flood-color="red"/>
      <feComposite operator="in" in2="blur-21"/>
      <feComposite in="SourceGraphic"/>
    </filter>
    <filter id="패스_108" x="171.509" y="175.168" width="52.868" height="78.832" filterUnits="userSpaceOnUse">
      <feOffset input="SourceAlpha"/>
      <feGaussianBlur stdDeviation="7.5" result="blur-22"/>
      <feFlood flood-color="red"/>
      <feComposite operator="in" in2="blur-22"/>
      <feComposite in="SourceGraphic"/>
    </filter>
    <filter id="패스_109" x="183.913" y="175.168" width="52.868" height="78.832" filterUnits="userSpaceOnUse">
      <feOffset input="SourceAlpha"/>
      <feGaussianBlur stdDeviation="7.5" result="blur-23"/>
      <feFlood flood-color="red"/>
      <feComposite operator="in" in2="blur-23"/>
      <feComposite in="SourceGraphic"/>
    </filter>
  </defs>
  <g id="그룹_404" data-name="그룹 404" transform="translate(-167 -460)">
    <g id="사각형_203" data-name="사각형 203" transform="translate(177 470)" stroke="red" stroke-width="10">
      <rect width="240" height="240" rx="30" stroke="none"/>
      <rect x="-5" y="-5" width="250" height="250" rx="35" fill="none"/>
    </g>
    <g transform="matrix(1, 0, 0, 1, 167, 460)" filter="url(#패스_87)">
      <path id="패스_87-2" data-name="패스 87" d="M51.445,47.813h-.393a4.135,4.135,0,1,1,4.327-4.327v.393a3.935,3.935,0,0,1-3.934,3.934" transform="translate(171.43 144.54)" fill="red"/>
    </g>
    <g transform="matrix(1, 0, 0, 1, 167, 460)" filter="url(#패스_88)">
      <path id="패스_88-2" data-name="패스 88" d="M168.734,47.52h-.775a3.934,3.934,0,0,1,0-7.868h.775a3.934,3.934,0,0,1,0,7.868m-12.384,0h-.771a3.934,3.934,0,0,1,0-7.868h.771a3.934,3.934,0,1,1,0,7.868m-12.38,0h-.775a3.934,3.934,0,1,1,0-7.868h.775a3.934,3.934,0,1,1,0,7.868m-12.384,0h-.775a3.934,3.934,0,1,1,0-7.868h.775a3.934,3.934,0,1,1,0,7.868m-12.38,0h-.775a3.934,3.934,0,1,1,0-7.868h.775a3.934,3.934,0,0,1,0,7.868m-12.384,0h-.775a3.934,3.934,0,0,1,0-7.868h.775a3.934,3.934,0,0,1,0,7.868m-12.384,0h-.775a3.934,3.934,0,1,1,0-7.868h.775a3.934,3.934,0,1,1,0,7.868m-12.38,0h-.775a3.934,3.934,0,0,1,0-7.868h.775a3.934,3.934,0,1,1,0,7.868m-12.384,0H68.9a3.934,3.934,0,1,1,0-7.868h.771a3.934,3.934,0,0,1,0,7.868m-12.384,0h-.771a3.934,3.934,0,0,1,0-7.868h.771a3.934,3.934,0,1,1,0,7.868m-12.38,0h-.775a3.934,3.934,0,0,1,0-7.868h.775a3.934,3.934,0,1,1,0,7.868m-12.384,0h-.771a3.934,3.934,0,1,1,0-7.868h.771a3.934,3.934,0,1,1,0,7.868m-12.384,0h-.771a3.934,3.934,0,1,1,0-7.868h.771a3.934,3.934,0,1,1,0,7.868m-12.38,0H6.985a3.934,3.934,0,1,1,0-7.868H7.76a3.934,3.934,0,0,1,0,7.868" transform="translate(42.14 144.84)" fill="red"/>
    </g>
    <g transform="matrix(1, 0, 0, 1, 167, 460)" filter="url(#패스_89)">
      <path id="패스_89-2" data-name="패스 89" d="M4.327,47.813H3.934A3.935,3.935,0,0,1,0,43.879v-.393a3.932,3.932,0,0,1,6.9-2.577,3.932,3.932,0,0,1-2.577,6.9" transform="translate(33.19 144.54)" fill="red"/>
    </g>
    <g transform="matrix(1, 0, 0, 1, 167, 460)" filter="url(#패스_90)">
      <path id="패스_90-2" data-name="패스 90" d="M3.935,151.658A3.93,3.93,0,0,1,0,147.724v-.787a3.934,3.934,0,1,1,7.868,0v.787a3.933,3.933,0,0,1-3.934,3.934m185.746-.13a3.938,3.938,0,0,1-3.934-3.934v-.787a3.934,3.934,0,0,1,7.868,0v.787a3.93,3.93,0,0,1-3.934,3.934M3.935,139.069A3.933,3.933,0,0,1,0,135.135v-.791a3.934,3.934,0,1,1,7.868,0v.791a3.935,3.935,0,0,1-3.934,3.934m185.746-.134A3.935,3.935,0,0,1,185.747,135v-.787a3.934,3.934,0,1,1,7.868,0V135a3.928,3.928,0,0,1-3.934,3.934M3.935,126.477A3.933,3.933,0,0,1,0,122.543v-.787a3.934,3.934,0,0,1,7.868,0v.787a3.935,3.935,0,0,1-3.934,3.934m185.746-.13a3.938,3.938,0,0,1-3.934-3.934v-.787a3.934,3.934,0,0,1,7.868,0v.787a3.93,3.93,0,0,1-3.934,3.934M3.935,113.884A3.933,3.933,0,0,1,0,109.95v-.787a3.934,3.934,0,1,1,7.868,0v.787a3.935,3.935,0,0,1-3.934,3.934m185.746-.13a3.938,3.938,0,0,1-3.934-3.934v-.787a3.934,3.934,0,1,1,7.868,0v.787a3.93,3.93,0,0,1-3.934,3.934M3.935,101.292A3.933,3.933,0,0,1,0,97.358v-.787a3.934,3.934,0,1,1,7.868,0v.787a3.935,3.935,0,0,1-3.934,3.934m185.746-.13a3.935,3.935,0,0,1-3.934-3.934v-.787a3.934,3.934,0,1,1,7.868,0v.787a3.928,3.928,0,0,1-3.934,3.934M3.935,88.7A3.93,3.93,0,0,1,0,84.765v-.787a3.934,3.934,0,0,1,7.868,0v.787A3.933,3.933,0,0,1,3.935,88.7m185.746-.13a3.938,3.938,0,0,1-3.934-3.934v-.787a3.934,3.934,0,1,1,7.868,0v.787a3.93,3.93,0,0,1-3.934,3.934M3.935,76.11A3.933,3.933,0,0,1,0,72.176v-.791a3.934,3.934,0,0,1,7.868,0v.791A3.935,3.935,0,0,1,3.935,76.11m185.746-.134a3.935,3.935,0,0,1-3.934-3.934V71.26a3.934,3.934,0,1,1,7.868,0v.783a3.928,3.928,0,0,1-3.934,3.934M3.935,63.518A3.933,3.933,0,0,1,0,59.584V58.8a3.934,3.934,0,1,1,7.868,0v.787a3.935,3.935,0,0,1-3.934,3.934m185.746-.13a3.938,3.938,0,0,1-3.934-3.934v-.787a3.934,3.934,0,1,1,7.868,0v.787a3.93,3.93,0,0,1-3.934,3.934M3.935,50.925A3.93,3.93,0,0,1,0,46.991V46.2a3.934,3.934,0,0,1,7.868,0v.787a3.933,3.933,0,0,1-3.934,3.934m185.746-.13a3.938,3.938,0,0,1-3.934-3.934v-.787a3.934,3.934,0,0,1,7.868,0v.787a3.93,3.93,0,0,1-3.934,3.934M3.935,38.332A3.933,3.933,0,0,1,0,34.4v-.787a3.934,3.934,0,0,1,7.868,0V34.4a3.935,3.935,0,0,1-3.934,3.934m185.746-.13a3.935,3.935,0,0,1-3.934-3.934v-.787a3.934,3.934,0,0,1,7.868,0v.787a3.928,3.928,0,0,1-3.934,3.934M4.372,25.771a4.1,4.1,0,0,1-.783-.079,3.938,3.938,0,0,1-3.08-4.634l.2-.909a3.933,3.933,0,1,1,7.648,1.837l-.138.629a3.934,3.934,0,0,1-3.851,3.155m184.849-.126a3.929,3.929,0,0,1-3.847-3.135l-.146-.637a3.933,3.933,0,1,1,7.644-1.857l.2.9a3.932,3.932,0,0,1-3.049,4.65,4.067,4.067,0,0,1-.806.083M10.111,14.756A3.932,3.932,0,0,1,7.259,8.116l.669-.673A3.932,3.932,0,1,1,13.4,13.088l-.441.445a3.913,3.913,0,0,1-2.852,1.223m173.307-.09a3.929,3.929,0,0,1-2.829-1.2L180.117,13a3.935,3.935,0,1,1,5.48-5.649l.637.641a3.934,3.934,0,0,1-2.817,6.672M20.851,8.525A3.936,3.936,0,0,1,19.9.771l.924-.208a3.933,3.933,0,0,1,1.6,7.7l-.614.142a4,4,0,0,1-.956.118m151.784-.035a4.046,4.046,0,0,1-.932-.11l-.618-.138A3.935,3.935,0,0,1,172.647.527l.913.208a3.932,3.932,0,0,1-.924,7.754m-12.541-.622h-.787a3.934,3.934,0,1,1,0-7.868h.787a3.934,3.934,0,0,1,0,7.868m-12.593,0h-.787a3.934,3.934,0,1,1,0-7.868h.787a3.934,3.934,0,0,1,0,7.868m-12.593,0h-.787a3.934,3.934,0,1,1,0-7.868h.787a3.934,3.934,0,1,1,0,7.868m-12.589,0h-.787a3.934,3.934,0,0,1,0-7.868h.787a3.934,3.934,0,0,1,0,7.868m-12.593,0h-.791a3.934,3.934,0,1,1,0-7.868h.791a3.934,3.934,0,0,1,0,7.868m-12.593,0h-.783a3.934,3.934,0,1,1,0-7.868h.783a3.934,3.934,0,1,1,0,7.868m-12.589,0h-.787a3.934,3.934,0,1,1,0-7.868h.787a3.934,3.934,0,0,1,0,7.868m-12.589,0h-.795a3.934,3.934,0,0,1,0-7.868h.795a3.934,3.934,0,1,1,0,7.868m-12.6,0h-.783a3.934,3.934,0,0,1,0-7.868h.783a3.934,3.934,0,0,1,0,7.868m-12.593,0h-.787a3.934,3.934,0,0,1,0-7.868h.787a3.934,3.934,0,1,1,0,7.868m-12.589,0h-.791a3.934,3.934,0,0,1,0-7.868h.791a3.934,3.934,0,0,1,0,7.868" transform="translate(33.19 28.5)" fill="red"/>
    </g>
    <g transform="matrix(1, 0, 0, 1, 167, 460)" filter="url(#패스_91)">
      <path id="패스_91-2" data-name="패스 91" d="M4.327,34.477H3.934a3.934,3.934,0,1,1,0-7.868h.393a3.934,3.934,0,1,1,0,7.868" transform="translate(33.19 106.57)" fill="red"/>
    </g>
    <g transform="matrix(1, 0, 0, 1, 167, 460)" filter="url(#패스_92)">
      <path id="패스_92-2" data-name="패스 92" d="M168.734,34.477h-.775a3.934,3.934,0,0,1,0-7.868h.775a3.934,3.934,0,0,1,0,7.868m-12.384,0h-.771a3.934,3.934,0,0,1,0-7.868h.771a3.934,3.934,0,1,1,0,7.868m-12.38,0h-.775a3.934,3.934,0,1,1,0-7.868h.775a3.934,3.934,0,1,1,0,7.868m-12.384,0h-.775a3.934,3.934,0,1,1,0-7.868h.775a3.934,3.934,0,1,1,0,7.868m-12.38,0h-.775a3.934,3.934,0,1,1,0-7.868h.775a3.934,3.934,0,0,1,0,7.868m-12.384,0h-.775a3.934,3.934,0,0,1,0-7.868h.775a3.934,3.934,0,0,1,0,7.868m-12.384,0h-.775a3.934,3.934,0,1,1,0-7.868h.775a3.934,3.934,0,1,1,0,7.868m-12.38,0h-.775a3.934,3.934,0,0,1,0-7.868h.775a3.934,3.934,0,1,1,0,7.868m-12.384,0H68.9a3.934,3.934,0,1,1,0-7.868h.771a3.934,3.934,0,0,1,0,7.868m-12.384,0h-.771a3.934,3.934,0,0,1,0-7.868h.771a3.934,3.934,0,1,1,0,7.868m-12.38,0h-.775a3.934,3.934,0,0,1,0-7.868h.775a3.934,3.934,0,1,1,0,7.868m-12.384,0h-.771a3.934,3.934,0,1,1,0-7.868h.771a3.934,3.934,0,1,1,0,7.868m-12.384,0h-.771a3.934,3.934,0,1,1,0-7.868h.771a3.934,3.934,0,1,1,0,7.868m-12.38,0H6.985a3.934,3.934,0,1,1,0-7.868H7.76a3.934,3.934,0,1,1,0,7.868" transform="translate(42.14 106.57)" fill="red"/>
    </g>
    <g transform="matrix(1, 0, 0, 1, 167, 460)" filter="url(#패스_93)">
      <path id="패스_93-2" data-name="패스 93" d="M51.445,34.477h-.393a3.934,3.934,0,0,1,0-7.868h.393a3.934,3.934,0,1,1,0,7.868" transform="translate(171.43 106.57)" fill="red"/>
    </g>
    <g transform="matrix(1, 0, 0, 1, 167, 460)" filter="url(#패스_94)">
      <path id="패스_94-2" data-name="패스 94" d="M27.543,8.261a3.935,3.935,0,0,1-3.934-3.934V3.934a3.934,3.934,0,1,1,7.868,0v.393a3.935,3.935,0,0,1-3.934,3.934" transform="translate(102.46 28.5)" fill="red"/>
    </g>
    <g transform="matrix(1, 0, 0, 1, 167, 460)" filter="url(#패스_95)">
      <path id="패스_95-2" data-name="패스 95" d="M27.543,90.435A3.933,3.933,0,0,1,23.609,86.5v-.818a3.934,3.934,0,1,1,7.868,0V86.5a3.933,3.933,0,0,1-3.934,3.934m0-13.088a3.935,3.935,0,0,1-3.934-3.934v-.818a3.934,3.934,0,1,1,7.868,0v.818a3.935,3.935,0,0,1-3.934,3.934m0-13.088a3.935,3.935,0,0,1-3.934-3.934v-.818a3.934,3.934,0,0,1,7.868,0v.818a3.935,3.935,0,0,1-3.934,3.934m0-13.088a3.935,3.935,0,0,1-3.934-3.934v-.818a3.934,3.934,0,1,1,7.868,0v.818a3.935,3.935,0,0,1-3.934,3.934m0-13.088a3.933,3.933,0,0,1-3.934-3.934V33.33a3.934,3.934,0,1,1,7.868,0v.818a3.933,3.933,0,0,1-3.934,3.934m0-13.088a3.935,3.935,0,0,1-3.934-3.934v-.818a3.934,3.934,0,1,1,7.868,0v.818a3.935,3.935,0,0,1-3.934,3.934m0-13.088a3.935,3.935,0,0,1-3.934-3.934V7.153a3.934,3.934,0,1,1,7.868,0v.818a3.935,3.935,0,0,1-3.934,3.934" transform="translate(102.46 37.94)" fill="red"/>
    </g>
    <g transform="matrix(1, 0, 0, 1, 167, 460)" filter="url(#패스_96)">
      <path id="패스_96-2" data-name="패스 96" d="M27.543,34.77a3.935,3.935,0,0,1-3.934-3.934v-.393a3.934,3.934,0,1,1,7.868,0v.393a3.935,3.935,0,0,1-3.934,3.934" transform="translate(102.46 106.28)" fill="red"/>
    </g>
    <g transform="matrix(1, 0, 0, 1, 167, 460)" filter="url(#패스_97)">
      <path id="패스_97-2" data-name="패스 97" d="M16.977,34.724a3.935,3.935,0,0,1-3.934-3.934,4.108,4.108,0,0,1,3.934-4.131A3.772,3.772,0,0,1,20.911,30.4v.393a3.935,3.935,0,0,1-3.934,3.934" transform="translate(71.46 106.72)" fill="red"/>
    </g>
    <g transform="matrix(1, 0, 0, 1, 167, 460)" filter="url(#패스_98)">
      <path id="패스_98-2" data-name="패스 98" d="M16.977,64.1a3.933,3.933,0,0,1-3.934-3.934v-.8a3.934,3.934,0,0,1,7.868,0v.8A3.933,3.933,0,0,1,16.977,64.1m0-12.829a3.935,3.935,0,0,1-3.934-3.934v-.8a3.934,3.934,0,1,1,7.868,0v.8a3.935,3.935,0,0,1-3.934,3.934m0-12.833A3.935,3.935,0,0,1,13.043,34.5v-.8a3.934,3.934,0,0,1,7.868,0v.8a3.935,3.935,0,0,1-3.934,3.934" transform="translate(71.46 115.84)" fill="red"/>
    </g>
    <g transform="matrix(1, 0, 0, 1, 167, 460)" filter="url(#패스_99)">
      <path id="패스_99-2" data-name="패스 99" d="M16.977,47.813a3.935,3.935,0,0,1-3.934-3.934v-.393a3.934,3.934,0,0,1,7.868,0v.393a3.935,3.935,0,0,1-3.934,3.934" transform="translate(71.46 144.54)" fill="red"/>
    </g>
    <g transform="matrix(1, 0, 0, 1, 167, 460)" filter="url(#패스_100)">
      <path id="패스_100-2" data-name="패스 100" d="M38.891,34.724a3.933,3.933,0,0,1-3.934-3.934,4.105,4.105,0,0,1,3.934-4.131A3.775,3.775,0,0,1,42.825,30.4v.393a3.938,3.938,0,0,1-3.934,3.934" transform="translate(135.75 106.72)" fill="red"/>
    </g>
    <g transform="matrix(1, 0, 0, 1, 167, 460)" filter="url(#패스_101)">
      <path id="패스_101-2" data-name="패스 101" d="M38.891,64.1a3.93,3.93,0,0,1-3.934-3.934v-.8a3.934,3.934,0,0,1,7.868,0v.8A3.935,3.935,0,0,1,38.891,64.1m0-12.829a3.933,3.933,0,0,1-3.934-3.934v-.8a3.934,3.934,0,1,1,7.868,0v.8a3.938,3.938,0,0,1-3.934,3.934m0-12.833A3.933,3.933,0,0,1,34.957,34.5v-.8a3.934,3.934,0,0,1,7.868,0v.8a3.938,3.938,0,0,1-3.934,3.934" transform="translate(135.75 115.84)" fill="red"/>
    </g>
    <g transform="matrix(1, 0, 0, 1, 167, 460)" filter="url(#패스_102)">
      <path id="패스_102-2" data-name="패스 102" d="M38.891,47.813a3.933,3.933,0,0,1-3.934-3.934v-.393a3.934,3.934,0,0,1,7.868,0v.393a3.938,3.938,0,0,1-3.934,3.934" transform="translate(135.75 144.54)" fill="red"/>
    </g>
    <g transform="matrix(1, 0, 0, 1, 167, 460)" filter="url(#패스_103)">
      <path id="패스_103-2" data-name="패스 103" d="M17.371,41h-.393a3.934,3.934,0,1,1,0-7.868h.393a3.934,3.934,0,1,1,0,7.868" transform="translate(71.46 125.7)" fill="red"/>
    </g>
    <g transform="matrix(1, 0, 0, 1, 167, 460)" filter="url(#패스_104)">
      <path id="패스_104-2" data-name="패스 104" d="M82.345,41h-.771a3.934,3.934,0,1,1,0-7.868h.771a3.934,3.934,0,1,1,0,7.868M70.031,41H69.26a3.934,3.934,0,0,1,0-7.868h.771a3.934,3.934,0,0,1,0,7.868M57.718,41h-.767a3.934,3.934,0,1,1,0-7.868h.767a3.934,3.934,0,1,1,0,7.868M45.4,41h-.767a3.934,3.934,0,0,1,0-7.868H45.4A3.934,3.934,0,1,1,45.4,41M33.091,41h-.767a3.934,3.934,0,1,1,0-7.868h.767a3.934,3.934,0,1,1,0,7.868M20.782,41h-.771a3.934,3.934,0,1,1,0-7.868h.771a3.934,3.934,0,1,1,0,7.868" transform="translate(80.36 125.7)" fill="red"/>
    </g>
    <g transform="matrix(1, 0, 0, 1, 167, 460)" filter="url(#패스_105)">
      <path id="패스_105-2" data-name="패스 105" d="M39.187,41h-.4a3.934,3.934,0,0,1,0-7.868h.4a3.934,3.934,0,1,1,0,7.868" transform="translate(135.46 125.7)" fill="red"/>
    </g>
    <g transform="matrix(1, 0, 0, 1, 167, 460)" filter="url(#패스_106)">
      <path id="패스_106-2" data-name="패스 106" d="M7.054,76.834A3.935,3.935,0,0,1,3.12,72.9v-.787a3.934,3.934,0,1,1,7.868,0V72.9a3.935,3.935,0,0,1-3.934,3.934m0-12.589A3.935,3.935,0,0,1,3.12,60.311v-.787a3.934,3.934,0,0,1,7.868,0v.787a3.935,3.935,0,0,1-3.934,3.934m0-12.589A3.935,3.935,0,0,1,3.12,47.723v-.787a3.934,3.934,0,0,1,7.868,0v.787a3.935,3.935,0,0,1-3.934,3.934" transform="translate(42.34 154.67)" fill="red"/>
    </g>
    <g transform="matrix(1, 0, 0, 1, 167, 460)" filter="url(#패스_107)">
      <path id="패스_107-2" data-name="패스 107" d="M10.206,76.834A3.935,3.935,0,0,1,6.272,72.9v-.787a3.934,3.934,0,1,1,7.868,0V72.9a3.935,3.935,0,0,1-3.934,3.934m0-12.589a3.935,3.935,0,0,1-3.934-3.934v-.787a3.934,3.934,0,0,1,7.868,0v.787a3.935,3.935,0,0,1-3.934,3.934m0-12.589a3.935,3.935,0,0,1-3.934-3.934v-.787a3.934,3.934,0,0,1,7.868,0v.787a3.935,3.935,0,0,1-3.934,3.934" transform="translate(51.59 154.67)" fill="red"/>
    </g>
    <g transform="matrix(1, 0, 0, 1, 167, 460)" filter="url(#패스_108)">
      <path id="패스_108-2" data-name="패스 108" d="M44.814,76.834A3.935,3.935,0,0,1,40.88,72.9v-.787a3.934,3.934,0,1,1,7.868,0V72.9a3.935,3.935,0,0,1-3.934,3.934m0-12.589a3.935,3.935,0,0,1-3.934-3.934v-.787a3.934,3.934,0,0,1,7.868,0v.787a3.935,3.935,0,0,1-3.934,3.934m0-12.589a3.935,3.935,0,0,1-3.934-3.934v-.787a3.934,3.934,0,0,1,7.868,0v.787a3.935,3.935,0,0,1-3.934,3.934" transform="translate(153.13 154.67)" fill="red"/>
    </g>
    <g transform="matrix(1, 0, 0, 1, 167, 460)" filter="url(#패스_109)">
      <path id="패스_109-2" data-name="패스 109" d="M47.967,76.834A3.935,3.935,0,0,1,44.033,72.9v-.787a3.934,3.934,0,1,1,7.868,0V72.9a3.935,3.935,0,0,1-3.934,3.934m0-12.589a3.935,3.935,0,0,1-3.934-3.934v-.787a3.934,3.934,0,1,1,7.868,0v.787a3.935,3.935,0,0,1-3.934,3.934m0-12.589a3.935,3.935,0,0,1-3.934-3.934v-.787a3.934,3.934,0,1,1,7.868,0v.787a3.935,3.935,0,0,1-3.934,3.934" transform="translate(162.38 154.67)" fill="red"/>
    </g>
  </g>
</svg>
