<svg xmlns="http://www.w3.org/2000/svg" width="190.808" height="109.248" viewBox="0 0 190.808 109.248">
  <g id="그룹_3" data-name="그룹 3" transform="translate(-848.192 -305.078)">
    <g id="그룹_1" data-name="그룹 1" transform="translate(915.431 305.078)">
      <path id="패스_1" data-name="패스 1" d="M146.835,353V336.674l-10.066-10.068-19.055,18.982H104.2a4.087,4.087,0,1,1,.022-2.727h12.366l20.183-20.1,10.063,10.063V313.64a4.541,4.541,0,0,0-4.542-4.543H124.924l-14.179,14.179H90.5V331.6h22.508l7.9-7.9a4.094,4.094,0,1,1,1.875,1.98l-8.648,8.648H90.5v20.235h29.382L134.02,340.43a4.1,4.1,0,1,1,1.911,1.943l-14.917,14.917H90.5v3.594a4.542,4.542,0,0,0,4.544,4.543h29.384l17.453-17.384Z" transform="translate(-90.504 -309.097)" fill="#fff"/>
      <path id="패스_2" data-name="패스 2" d="M123.5,360h14a4.541,4.541,0,0,0,4.542-4.543v-4.033l-4.956-4.956Z" transform="translate(-85.715 -303.673)" fill="#fff"/>
      <path id="패스_3" data-name="패스 3" d="M121.07,309.1H95.048A4.542,4.542,0,0,0,90.5,313.64v6.91h19.112Z" transform="translate(-90.504 -309.097)" fill="#fff"/>
    </g>
    <g id="그룹_2" data-name="그룹 2" transform="translate(848.192 374.93)">
      <path id="패스_4" data-name="패스 4" d="M305.067,262.828a4.6,4.6,0,0,1-.044-.581v-.583c0-.552.019-1.112.044-1.665s.057-1.122.085-1.713H275.709v.049q0,1.955-.039,3.912a26.172,26.172,0,0,1-.377,3.877l.664.119q.376-.577,1.04-1.411t1.5-1.715c.421-.381.838-.779,1.277-1.184a15.9,15.9,0,0,1,1.3-1.1,13.366,13.366,0,0,1,2.023-1.354,3.813,3.813,0,0,1,1.77-.522,1.284,1.284,0,0,1,.415.069c.14.035.3.09.459.148a5.009,5.009,0,0,1,.854.541,4.505,4.505,0,0,1,.733.664,4.343,4.343,0,0,1,.265.455.849.849,0,0,1,.105.376v22.612a2.524,2.524,0,0,1-1,2.106,5.34,5.34,0,0,1-2.175,1.017l-.663.09a3.108,3.108,0,0,1-.619,0v.581h13.822v-.543a3.82,3.82,0,0,1-.435-.021c-.153-.015-.3-.034-.436-.061a5.219,5.219,0,0,1-2.375-.941,2.638,2.638,0,0,1-1.084-2.31V261.417a1.53,1.53,0,0,1,.045-.338,1.43,1.43,0,0,1,.126-.329,3.3,3.3,0,0,1,.98-1.229,2.231,2.231,0,0,1,1.43-.566,4.719,4.719,0,0,1,1.837.464,14.575,14.575,0,0,1,2.117,1.162,19.005,19.005,0,0,1,1.878,1.4,15.656,15.656,0,0,1,1.666,1.6,12.249,12.249,0,0,1,1.293,1.5,5.633,5.633,0,0,1,.749,1.331l.708-.169a10.065,10.065,0,0,1-.353-1.689C305.149,263.988,305.1,263.409,305.067,262.828Z" transform="translate(-275.293 -257.444)" fill="#fff"/>
      <path id="패스_5" data-name="패스 5" d="M327,279.872c-.179-.3-.338-.613-.511-.936s-.34-.648-.54-.977a18.732,18.732,0,0,0-2.724-3.312,8.174,8.174,0,0,0-3.809-2.1V272.5c.163,0,.326-.009.494-.022s.337-.025.507-.025a23.043,23.043,0,0,0,6.663-1.161q3.035-1.048,3.038-5.289a6.86,6.86,0,0,0-3-5.392,12.443,12.443,0,0,0-7.994-2.4c-.418,0-.838.014-1.265.029s-.875.016-1.316.016c-.447.033-.882.049-1.316.062a10.6,10.6,0,0,1-1.268-.025h-9.535v.632h.664c.226,0,.45.016.686.038a2.366,2.366,0,0,1,.646.172,1.984,1.984,0,0,1,.9.6,3.5,3.5,0,0,1,.607.938,2.193,2.193,0,0,1,.182.5,1.657,1.657,0,0,1,.062.415v22.7a1.439,1.439,0,0,1-.415,1,7.774,7.774,0,0,1-.878.842,5.27,5.27,0,0,1-.554.35,4.24,4.24,0,0,1-.486.226,4.043,4.043,0,0,1-.85.3,1.725,1.725,0,0,1-.561.044v.581h13.4v-.581l-1.331.038a3.28,3.28,0,0,1-2.14-.813,2.539,2.539,0,0,1-.978-2.052V272.378h2.454a4.188,4.188,0,0,1,1.183.166,2.951,2.951,0,0,1,1.113.669,6.3,6.3,0,0,1,1,1.23,19.858,19.858,0,0,1,1.078,1.931c3.233,6.494,6.42,11.057,12.575,15.416,3.693,2.609,10.084,5.421,14.734,5.024a28.658,28.658,0,0,1-13.615-7.882A40.315,40.315,0,0,1,327,279.872Zm-8.751-8.117h-4.871v-9.792a2.491,2.491,0,0,1,1.312-2.406,6.58,6.58,0,0,1,3.222-.719,6.334,6.334,0,0,1,5,1.965,7.324,7.324,0,0,1,1.753,5.075,6.771,6.771,0,0,1-.752,3.294,4.428,4.428,0,0,1-1.952,1.954,5.185,5.185,0,0,1-1.758.549A12.073,12.073,0,0,1,318.252,271.755Z" transform="translate(-271.065 -257.455)" fill="#fff"/>
      <path id="패스_6" data-name="패스 6" d="M357.169,286.944c-.055-.026-.123-.052-.186-.082s-.14-.057-.191-.086a3.968,3.968,0,0,1-.878-.744,12.185,12.185,0,0,1-1.031-1.331c-.254-.361-.5-.762-.757-1.189s-.489-.857-.707-1.275c-.082-.167-.161-.329-.229-.473s-.143-.328-.23-.521l-10.37-23.534h-6.606v.547a2.591,2.591,0,0,1,2.461,1.262l.966,2.654-10.362,21.887,1.494,1.043,9.776-20.516,4.394,9.993.96,2.328,1.42,3.163c.055.144.117.282.181.421s.153.284.236.458c.05.136.108.267.163.4s.111.253.165.39a6.351,6.351,0,0,1,.274.836,3.366,3.366,0,0,1,.1.75,4.775,4.775,0,0,1-.145,1.02,3.965,3.965,0,0,1-.685,1.354c-.089.109-.164.211-.248.313a2.481,2.481,0,0,0-.213.27,2.543,2.543,0,0,1-1.268.728,9.027,9.027,0,0,1-1.978.109v.581h15.24v-.543c-.468,0-.835-.017-1.081-.038A2.533,2.533,0,0,1,357.169,286.944Z" transform="translate(-267.492 -257.528)" fill="#fff"/>
      <path id="패스_7" data-name="패스 7" d="M360.721,263.02a9.765,9.765,0,0,1,7.956-3.837,13,13,0,0,1,5.995,1.347,16.732,16.732,0,0,1,5.11,4.369l.734-.778a15.34,15.34,0,0,0-5.365-4.894,14.521,14.521,0,0,0-7.012-1.675c-4.677,0-8.031,1.179-10.852,3.972a16.064,16.064,0,0,0-4.516,7.987,18.156,18.156,0,0,0,.8,10.138,13.876,13.876,0,0,0,3.109,4.705q4.239,4.188,11.244,4.187a14.516,14.516,0,0,0,7.016-1.673,16.615,16.615,0,0,0,5.574-5.1l-.734-.77a16.889,16.889,0,0,1-5.11,4.357,12.943,12.943,0,0,1-5.995,1.35,9.86,9.86,0,0,1-8-3.842,13.127,13.127,0,0,1-1.3-1.918,17.431,17.431,0,0,1-1.758-9.727A14.4,14.4,0,0,1,360.721,263.02Z" transform="translate(-264.104 -257.551)" fill="#fff"/>
      <path id="패스_8" data-name="패스 8" d="M394.281,257.563q-6.917,0-11.117,4.225t-4.2,11.233q0,7.029,4.2,11.277t11.117,4.24q6.941,0,11.144-4.24t4.2-11.277q0-7-4.2-11.233T394.281,257.563Zm7.471,25.6a9.3,9.3,0,0,1-14.917,0q-2.778-3.738-2.768-10.141,0-6.359,2.768-10.092a9.318,9.318,0,0,1,14.917,0q2.769,3.731,2.771,10.092Q404.523,279.418,401.752,283.162Z" transform="translate(-260.248 -257.549)" fill="#fff"/>
      <path id="패스_9" data-name="패스 9" d="M443.473,259.837a5.273,5.273,0,0,1,3.26-.828v-.878h-8.548l-10.339,22.652-10.456-22.652h-8.634v.9a5.179,5.179,0,0,1,3.191.947c.516.507.782,1.721.782,3.63v18.117q0,3.03-.85,4.073a3.883,3.883,0,0,1-3.124,1.068v.9h10.227v-.9q-2.508-.041-3.34-.948c-.547-.607-.821-1.917-.821-3.922V263.133l11.229,24.629h.854l11.176-24.629v19.362q0,2.7-.786,3.475c-.524.519-1.622.813-3.275.9v.9h12.713v-.9a5.434,5.434,0,0,1-3.282-.92q-.776-.752-.774-3.453V263.4Q442.677,260.576,443.473,259.837Z" transform="translate(-255.925 -257.467)" fill="#fff"/>
    </g>
  </g>
</svg>
