<svg xmlns="http://www.w3.org/2000/svg" width="130" height="50" viewBox="0 0 130 50">
  <g id="그룹_294" data-name="그룹 294" transform="translate(-1221 -378)">
    <g id="그룹_255" data-name="그룹 255" transform="translate(5 -8)">
      <g id="사각형_69" data-name="사각형 69" transform="translate(1216 386)" fill="#e3e3e3" stroke="#707070" stroke-width="2">
        <rect width="130" height="50" stroke="none"/>
        <rect x="1" y="1" width="128" height="48" fill="none"/>
      </g>
      <line id="선_54" data-name="선 54" y2="50" transform="translate(1303 386)" fill="none" stroke="#707070" stroke-width="2"/>
    </g>
    <g id="사각형_81" data-name="사각형 81" transform="translate(1236 392)" fill="none" stroke="#707070" stroke-linecap="round" stroke-width="3">
      <rect width="58" height="22" rx="7" stroke="none"/>
      <rect x="1.5" y="1.5" width="55" height="19" rx="5.5" fill="none"/>
    </g>
    <g id="타원_9" data-name="타원 9" transform="translate(1245 391)" fill="#fff" stroke="#707070" stroke-width="1">
      <circle cx="2.5" cy="2.5" r="2.5" stroke="none"/>
      <circle cx="2.5" cy="2.5" r="2" fill="none"/>
    </g>
    <g id="타원_12" data-name="타원 12" transform="translate(1245 410)" fill="#fff" stroke="#707070" stroke-width="1">
      <circle cx="2.5" cy="2.5" r="2.5" stroke="none"/>
      <circle cx="2.5" cy="2.5" r="2" fill="none"/>
    </g>
    <g id="타원_10" data-name="타원 10" transform="translate(1262 391)" fill="#fff" stroke="#707070" stroke-width="1">
      <circle cx="2.5" cy="2.5" r="2.5" stroke="none"/>
      <circle cx="2.5" cy="2.5" r="2" fill="none"/>
    </g>
    <g id="타원_13" data-name="타원 13" transform="translate(1262 410)" fill="#fff" stroke="#707070" stroke-width="1">
      <circle cx="2.5" cy="2.5" r="2.5" stroke="none"/>
      <circle cx="2.5" cy="2.5" r="2" fill="none"/>
    </g>
    <g id="타원_11" data-name="타원 11" transform="translate(1279 391)" fill="#fff" stroke="#707070" stroke-width="1">
      <circle cx="2.5" cy="2.5" r="2.5" stroke="none"/>
      <circle cx="2.5" cy="2.5" r="2" fill="none"/>
    </g>
    <g id="타원_14" data-name="타원 14" transform="translate(1279 410)" fill="#fff" stroke="#707070" stroke-width="1">
      <circle cx="2.5" cy="2.5" r="2.5" stroke="none"/>
      <circle cx="2.5" cy="2.5" r="2" fill="none"/>
    </g>
    <g id="타원_18" data-name="타원 18" transform="translate(1290 401)" fill="#fff" stroke="#707070" stroke-width="1">
      <circle cx="2.5" cy="2.5" r="2.5" stroke="none"/>
      <circle cx="2.5" cy="2.5" r="2" fill="none"/>
    </g>
    <g id="타원_16" data-name="타원 16" transform="translate(1235 401)" fill="#fff" stroke="#707070" stroke-width="1">
      <circle cx="2.5" cy="2.5" r="2.5" stroke="none"/>
      <circle cx="2.5" cy="2.5" r="2" fill="none"/>
    </g>
    <g id="그룹_290" data-name="그룹 290">
      <g id="빼기_1" data-name="빼기 1" transform="translate(10155 2857.5)" fill="#fff">
        <path d="M -8815.66015625 -2444.5 L -8835.3408203125 -2444.5 C -8834.962890625 -2446.83447265625 -8833.8974609375 -2448.9716796875 -8832.2802734375 -2450.60400390625 C -8830.427734375 -2452.47119140625 -8828.0185546875 -2453.5 -8825.4990234375 -2453.5 C -8822.978515625 -2453.5 -8820.5712890625 -2452.471435546875 -8818.7216796875 -2450.60400390625 C -8817.1044921875 -2448.972900390625 -8816.0390625 -2446.83544921875 -8815.66015625 -2444.5 Z" stroke="none"/>
        <path d="M -8816.9013671875 -2445.5 C -8817.3681640625 -2447.174072265625 -8818.2333984375 -2448.691162109375 -8819.431640625 -2449.900146484375 C -8821.0927734375 -2451.57666015625 -8823.2470703125 -2452.5 -8825.4990234375 -2452.5 C -8827.75 -2452.5 -8829.9072265625 -2451.576171875 -8831.5703125 -2449.900146484375 C -8832.7685546875 -2448.6904296875 -8833.6337890625 -2447.173095703125 -8834.099609375 -2445.5 L -8816.9013671875 -2445.5 M -8814.5380859375 -2443.5 L -8836.4619140625 -2443.5 C -8836.2529296875 -2446.48779296875 -8835.01953125 -2449.259765625 -8832.9912109375 -2451.3076171875 C -8830.9482421875 -2453.3662109375 -8828.2890625 -2454.5 -8825.4990234375 -2454.5 C -8822.7109375 -2454.5 -8820.0498046875 -2453.3662109375 -8818.0107421875 -2451.3076171875 C -8815.9814453125 -2449.259765625 -8814.7490234375 -2446.4873046875 -8814.5380859375 -2443.5009765625 L -8814.5380859375 -2443.5 Z" stroke="none" fill="#707070"/>
      </g>
      <g id="타원_19" data-name="타원 19" transform="translate(1324 393)" fill="#fff" stroke="#707070" stroke-width="2">
        <circle cx="5.5" cy="5.5" r="5.5" stroke="none"/>
        <circle cx="5.5" cy="5.5" r="4.5" fill="none"/>
      </g>
    </g>
  </g>
</svg>
