<svg xmlns="http://www.w3.org/2000/svg" width="12" height="13.091" viewBox="0 0 12 13.091">
  <g id="그룹_47" data-name="그룹 47" transform="translate(0)">
    <path id="Icon_ionic-md-bus" data-name="Icon ionic-md-bus" d="M5.625,14.318c0,.654.473.836.909,1.237v1.309a.73.73,0,0,0,.727.727h.727a.73.73,0,0,0,.727-.727v-.727h5.818v.727a.73.73,0,0,0,.727.727h.727a.73.73,0,0,0,.727-.727V15.555c.436-.4.909-.618.909-1.237V7.375c0-2.545-2.8-2.875-6-2.875s-6,.33-6,2.875Zm10.364-2.73H7.261V7.045h8.727Z" transform="translate(-5.625 -4.5)" fill="#333"/>
    <rect id="사각형_41" data-name="사각형 41" width="4" height="2" transform="translate(4 8.545)" fill="#eb4545"/>
  </g>
</svg>
