<svg xmlns="http://www.w3.org/2000/svg" width="12.069" height="15.69" viewBox="0 0 12.069 15.69">
  <path id="humidity_icon" d="M16.405,7.086a16.865,16.865,0,0,0-3.425-3.643.323.323,0,0,0-.392,0,16.659,16.659,0,0,0-3.413,3.64,11.441,11.441,0,0,0-2.421,6.446c0,.045,0,.094,0,.14a4.929,4.929,0,0,0,.411,1.965,5.3,5.3,0,0,0,.573.992,6.226,6.226,0,0,0,5.046,2.444c3.334,0,6.038-2.418,6.038-5.4A11.485,11.485,0,0,0,16.405,7.086Zm-3.244,9.968h-.019a.331.331,0,0,1-.1-.645A4.7,4.7,0,0,0,16.3,13.362a.328.328,0,0,1,.634.117v.053A3.66,3.66,0,0,1,13.162,17.054Z" transform="translate(-6.75 -3.374)" fill="#fff"/>
</svg>
