<svg xmlns="http://www.w3.org/2000/svg" xmlns:xlink="http://www.w3.org/1999/xlink" width="146.244" height="159.268" viewBox="0 0 146.244 159.268">
  <defs>
    <filter id="SC004_MAIN" x="0" y="0" width="146.244" height="107.771" filterUnits="userSpaceOnUse">
      <feOffset dx="3" dy="3" input="SourceAlpha"/>
      <feGaussianBlur stdDeviation="3" result="blur"/>
      <feFlood flood-opacity="0.251"/>
      <feComposite operator="in" in2="blur"/>
      <feComposite in="SourceGraphic"/>
    </filter>
    <filter id="선_68" x="5.879" y="94.099" width="41.335" height="41.335" filterUnits="userSpaceOnUse">
      <feOffset dx="3" dy="3" input="SourceAlpha"/>
      <feGaussianBlur stdDeviation="3" result="blur-2"/>
      <feFlood flood-opacity="0.251"/>
      <feComposite operator="in" in2="blur-2"/>
      <feComposite in="SourceGraphic"/>
    </filter>
    <filter id="선_72" x="78.659" y="94.599" width="44.163" height="44.163" filterUnits="userSpaceOnUse">
      <feOffset dx="3" dy="3" input="SourceAlpha"/>
      <feGaussianBlur stdDeviation="3" result="blur-3"/>
      <feFlood flood-opacity="0.251"/>
      <feComposite operator="in" in2="blur-3"/>
      <feComposite in="SourceGraphic"/>
    </filter>
    <filter id="선_73" x="63.103" y="120.762" width="33.556" height="33.556" filterUnits="userSpaceOnUse">
      <feOffset dx="3" dy="3" input="SourceAlpha"/>
      <feGaussianBlur stdDeviation="3" result="blur-4"/>
      <feFlood flood-opacity="0.251"/>
      <feComposite operator="in" in2="blur-4"/>
      <feComposite in="SourceGraphic"/>
    </filter>
    <filter id="선_70" x="60.174" y="94.599" width="37.092" height="37.092" filterUnits="userSpaceOnUse">
      <feOffset dx="3" dy="3" input="SourceAlpha"/>
      <feGaussianBlur stdDeviation="3" result="blur-5"/>
      <feFlood flood-opacity="0.251"/>
      <feComposite operator="in" in2="blur-5"/>
      <feComposite in="SourceGraphic"/>
    </filter>
    <filter id="선_71" x="32.597" y="114.398" width="44.87" height="44.87" filterUnits="userSpaceOnUse">
      <feOffset dx="3" dy="3" input="SourceAlpha"/>
      <feGaussianBlur stdDeviation="3" result="blur-6"/>
      <feFlood flood-opacity="0.251"/>
      <feComposite operator="in" in2="blur-6"/>
      <feComposite in="SourceGraphic"/>
    </filter>
    <filter id="선_69" x="20.122" y="94.099" width="51.941" height="51.941" filterUnits="userSpaceOnUse">
      <feOffset dx="3" dy="3" input="SourceAlpha"/>
      <feGaussianBlur stdDeviation="3" result="blur-7"/>
      <feFlood flood-opacity="0.251"/>
      <feComposite operator="in" in2="blur-7"/>
      <feComposite in="SourceGraphic"/>
    </filter>
  </defs>
  <g id="SC005_MAIN" transform="translate(-682.878 -324.158)">
    <g transform="matrix(1, 0, 0, 1, 682.88, 324.16)" filter="url(#SC004_MAIN)">
      <path id="SC004_MAIN-2" data-name="SC004_MAIN" d="M107.725,41.244a19.259,19.259,0,0,0-17.954-26.17,19.139,19.139,0,0,0-10.68,3.246,32.064,32.064,0,0,0-59.854,15.99c0,.541.02,1.082.04,1.623a28.862,28.862,0,0,0,9.578,56.087H102.6a25.647,25.647,0,0,0,5.13-50.777Z" transform="translate(6 3.75)" fill="#fff"/>
    </g>
    <g transform="matrix(1, 0, 0, 1, 682.88, 324.16)" filter="url(#선_68)">
      <line id="선_68-2" data-name="선 68" y2="21" transform="translate(30.97 104.34) rotate(45)" fill="none" stroke="#fff" stroke-linecap="round" stroke-width="6"/>
    </g>
    <g id="그룹_292" data-name="그룹 292" transform="translate(545.152 -421.296) rotate(45)">
      <g transform="matrix(0.71, -0.71, 0.71, 0.71, 624.5, 429.73)" filter="url(#선_72)">
        <line id="선_72-2" data-name="선 72" y2="25" transform="translate(106.58 104.84) rotate(45)" fill="none" stroke="#fff" stroke-linecap="round" stroke-width="6"/>
      </g>
      <g transform="matrix(0.71, -0.71, 0.71, 0.71, 624.5, 429.73)" filter="url(#선_73)">
        <line id="선_73-2" data-name="선 73" y2="10" transform="translate(80.42 131) rotate(45)" fill="none" stroke="#fff" stroke-linecap="round" stroke-width="6"/>
      </g>
    </g>
    <g id="그룹_293" data-name="그룹 293" transform="translate(534.445 -406.447) rotate(45)">
      <g transform="matrix(0.71, -0.71, 0.71, 0.71, 621.57, 411.66)" filter="url(#선_70)">
        <line id="선_70-2" data-name="선 70" y2="15" transform="translate(81.02 104.84) rotate(45)" fill="none" stroke="#fff" stroke-linecap="round" stroke-width="6"/>
      </g>
      <g transform="matrix(0.71, -0.71, 0.71, 0.71, 621.57, 411.66)" filter="url(#선_71)">
        <line id="선_71-2" data-name="선 71" y2="26" transform="translate(61.22 124.64) rotate(45)" fill="none" stroke="#fff" stroke-linecap="round" stroke-width="6"/>
      </g>
    </g>
    <g transform="matrix(1, 0, 0, 1, 682.88, 324.16)" filter="url(#선_69)">
      <line id="선_69-2" data-name="선 69" y2="36" transform="translate(55.82 104.34) rotate(45)" fill="none" stroke="#fff" stroke-linecap="round" stroke-width="6"/>
    </g>
  </g>
</svg>
