<svg xmlns="http://www.w3.org/2000/svg" xmlns:xlink="http://www.w3.org/1999/xlink" width="153.315" height="162.899" viewBox="0 0 153.315 162.899">
  <defs>
    <filter id="SC004_MAIN" x="7.071" y="0" width="146.244" height="107.771" filterUnits="userSpaceOnUse">
      <feOffset dx="3" dy="3" input="SourceAlpha"/>
      <feGaussianBlur stdDeviation="3" result="blur"/>
      <feFlood flood-opacity="0.251"/>
      <feComposite operator="in" in2="blur"/>
      <feComposite in="SourceGraphic"/>
    </filter>
    <filter id="선_80" x="70.9" y="130.757" width="32.142" height="32.142" filterUnits="userSpaceOnUse">
      <feOffset dx="3" dy="3" input="SourceAlpha"/>
      <feGaussianBlur stdDeviation="3" result="blur-2"/>
      <feFlood flood-opacity="0.251"/>
      <feComposite operator="in" in2="blur-2"/>
      <feComposite in="SourceGraphic"/>
    </filter>
    <filter id="선_86" x="0" y="93.087" width="32.142" height="32.142" filterUnits="userSpaceOnUse">
      <feOffset dx="3" dy="3" input="SourceAlpha"/>
      <feGaussianBlur stdDeviation="3" result="blur-3"/>
      <feFlood flood-opacity="0.251"/>
      <feComposite operator="in" in2="blur-3"/>
      <feComposite in="SourceGraphic"/>
    </filter>
    <filter id="선_85" x="86.901" y="116.757" width="30.728" height="30.728" filterUnits="userSpaceOnUse">
      <feOffset dx="3" dy="3" input="SourceAlpha"/>
      <feGaussianBlur stdDeviation="3" result="blur-4"/>
      <feFlood flood-opacity="0.251"/>
      <feComposite operator="in" in2="blur-4"/>
      <feComposite in="SourceGraphic"/>
    </filter>
    <filter id="선_84" x="66.751" y="95.915" width="43.456" height="43.456" filterUnits="userSpaceOnUse">
      <feOffset dx="3" dy="3" input="SourceAlpha"/>
      <feGaussianBlur stdDeviation="3" result="blur-5"/>
      <feFlood flood-opacity="0.251"/>
      <feComposite operator="in" in2="blur-5"/>
      <feComposite in="SourceGraphic"/>
    </filter>
    <filter id="그룹_295" x="100.143" y="95" width="52" height="52" filterUnits="userSpaceOnUse">
      <feOffset dx="3" dy="3" input="SourceAlpha"/>
      <feGaussianBlur stdDeviation="3" result="blur-6"/>
      <feFlood flood-opacity="0.251"/>
      <feComposite operator="in" in2="blur-6"/>
      <feComposite in="SourceGraphic"/>
    </filter>
    <filter id="그룹_294" x="11.9" y="95" width="63.6" height="64" filterUnits="userSpaceOnUse">
      <feOffset dx="3" dy="3" input="SourceAlpha"/>
      <feGaussianBlur stdDeviation="3" result="blur-7"/>
      <feFlood flood-opacity="0.251"/>
      <feComposite operator="in" in2="blur-7"/>
      <feComposite in="SourceGraphic"/>
    </filter>
  </defs>
  <g id="SC007_MAIN" transform="translate(-678.857 -323)">
    <g transform="matrix(1, 0, 0, 1, 678.86, 323)" filter="url(#SC004_MAIN)">
      <path id="SC004_MAIN-2" data-name="SC004_MAIN" d="M107.725,41.244a19.259,19.259,0,0,0-17.954-26.17,19.139,19.139,0,0,0-10.68,3.246,32.064,32.064,0,0,0-59.854,15.99c0,.541.02,1.082.04,1.623a28.862,28.862,0,0,0,9.578,56.087H102.6a25.647,25.647,0,0,0,5.13-50.777Z" transform="translate(13.07 3.75)" fill="#fff"/>
    </g>
    <g transform="matrix(1, 0, 0, 1, 678.86, 323)" filter="url(#선_80)">
      <line id="선_80-2" data-name="선 80" y2="8" transform="translate(86.8 141) rotate(45)" fill="none" stroke="#fff" stroke-linecap="round" stroke-width="6"/>
    </g>
    <g transform="matrix(1, 0, 0, 1, 678.86, 323)" filter="url(#선_86)">
      <line id="선_86-2" data-name="선 86" y2="8" transform="translate(15.9 103.33) rotate(45)" fill="none" stroke="#fff" stroke-linecap="round" stroke-width="6"/>
    </g>
    <g transform="matrix(1, 0, 0, 1, 678.86, 323)" filter="url(#선_85)">
      <line id="선_85-2" data-name="선 85" y2="6" transform="translate(101.39 127) rotate(45)" fill="none" stroke="#fff" stroke-linecap="round" stroke-width="6"/>
    </g>
    <g transform="matrix(1, 0, 0, 1, 678.86, 323)" filter="url(#선_84)">
      <line id="선_84-2" data-name="선 84" y2="24" transform="translate(93.96 106.16) rotate(45)" fill="none" stroke="#fff" stroke-linecap="round" stroke-width="6"/>
    </g>
    <g transform="matrix(1, 0, 0, 1, 678.86, 323)" filter="url(#그룹_295)">
      <path id="그룹_295-2" data-name="그룹 295" d="M37,20H30.2l4.7-4.7a2.97,2.97,0,0,0-4.2-4.2L26,15.8V9a3,3,0,0,0-6,0v6.8L15.3,11a2.97,2.97,0,0,0-4.2,4.2l4.7,4.7H9a3,3,0,0,0,0,6h6.8L11,30.7a2.9,2.9,0,0,0,0,4.2,2.9,2.9,0,0,0,4.2,0l4.7-4.7V37a3,3,0,0,0,6,0V30.2l4.7,4.7a2.9,2.9,0,0,0,4.2,0,2.9,2.9,0,0,0,0-4.2L30.2,26H37a3,3,0,0,0,0-6Z" transform="translate(100.14 95)" fill="#fff"/>
    </g>
    <g transform="matrix(1, 0, 0, 1, 678.86, 323)" filter="url(#그룹_294)">
      <path id="그룹_294-2" data-name="그룹 294" d="M48.7,26.2H36.1L45,17.3a2.97,2.97,0,0,0-4.2-4.2L32,21.8V9a3,3,0,0,0-6,0V22.1L16.9,13a2.97,2.97,0,0,0-4.2,4.2l8.9,8.9H9a3,3,0,1,0,0,6H21.6L12.7,41a2.9,2.9,0,0,0,0,4.2,3.049,3.049,0,0,0,2.1.9,2.878,2.878,0,0,0,2.1-.9L26,36.1V49a3,3,0,1,0,6,0V36.6l8.7,8.7a2.9,2.9,0,0,0,4.2,0,2.9,2.9,0,0,0,0-4.2L36,32.2H48.6a3,3,0,0,0,.1-6Z" transform="translate(11.9 95)" fill="#fff"/>
    </g>
  </g>
</svg>
