<svg xmlns="http://www.w3.org/2000/svg" xmlns:xlink="http://www.w3.org/1999/xlink" width="146.244" height="161" viewBox="0 0 146.244 161">
  <defs>
    <filter id="SC004_MAIN" x="0" y="0" width="146.244" height="107.771" filterUnits="userSpaceOnUse">
      <feOffset dx="3" dy="3" input="SourceAlpha"/>
      <feGaussianBlur stdDeviation="3" result="blur"/>
      <feFlood flood-opacity="0.251"/>
      <feComposite operator="in" in2="blur"/>
      <feComposite in="SourceGraphic"/>
    </filter>
    <filter id="그룹_295" x="85.208" y="95" width="52" height="52" filterUnits="userSpaceOnUse">
      <feOffset dx="3" dy="3" input="SourceAlpha"/>
      <feGaussianBlur stdDeviation="3" result="blur-2"/>
      <feFlood flood-opacity="0.251"/>
      <feComposite operator="in" in2="blur-2"/>
      <feComposite in="SourceGraphic"/>
    </filter>
    <filter id="그룹_294" x="0" y="95" width="63.6" height="64" filterUnits="userSpaceOnUse">
      <feOffset dx="3" dy="3" input="SourceAlpha"/>
      <feGaussianBlur stdDeviation="3" result="blur-3"/>
      <feFlood flood-opacity="0.251"/>
      <feComposite operator="in" in2="blur-3"/>
      <feComposite in="SourceGraphic"/>
    </filter>
    <filter id="그룹_294-2" x="54.708" y="117" width="44" height="44" filterUnits="userSpaceOnUse">
      <feOffset dx="3" dy="3" input="SourceAlpha"/>
      <feGaussianBlur stdDeviation="3" result="blur-4"/>
      <feFlood flood-opacity="0.251"/>
      <feComposite operator="in" in2="blur-4"/>
      <feComposite in="SourceGraphic"/>
    </filter>
  </defs>
  <g id="SC008_MAIN" transform="translate(-684.292 -323)">
    <g transform="matrix(1, 0, 0, 1, 684.29, 323)" filter="url(#SC004_MAIN)">
      <path id="SC004_MAIN-2" data-name="SC004_MAIN" d="M107.725,41.244a19.259,19.259,0,0,0-17.954-26.17,19.139,19.139,0,0,0-10.68,3.246,32.064,32.064,0,0,0-59.854,15.99c0,.541.02,1.082.04,1.623a28.862,28.862,0,0,0,9.578,56.087H102.6a25.647,25.647,0,0,0,5.13-50.777Z" transform="translate(6 3.75)" fill="#fff"/>
    </g>
    <g transform="matrix(1, 0, 0, 1, 684.29, 323)" filter="url(#그룹_295)">
      <path id="그룹_295-2" data-name="그룹 295" d="M37,20H30.2l4.7-4.7a2.97,2.97,0,0,0-4.2-4.2L26,15.8V9a3,3,0,0,0-6,0v6.8L15.3,11a2.97,2.97,0,0,0-4.2,4.2l4.7,4.7H9a3,3,0,0,0,0,6h6.8L11,30.7a2.9,2.9,0,0,0,0,4.2,2.9,2.9,0,0,0,4.2,0l4.7-4.7V37a3,3,0,0,0,6,0V30.2l4.7,4.7a2.9,2.9,0,0,0,4.2,0,2.9,2.9,0,0,0,0-4.2L30.2,26H37a3,3,0,0,0,0-6Z" transform="translate(85.21 95)" fill="#fff"/>
    </g>
    <g transform="matrix(1, 0, 0, 1, 684.29, 323)" filter="url(#그룹_294)">
      <path id="그룹_294-3" data-name="그룹 294" d="M48.7,26.2H36.1L45,17.3a2.97,2.97,0,0,0-4.2-4.2L32,21.8V9a3,3,0,0,0-6,0V22.1L16.9,13a2.97,2.97,0,0,0-4.2,4.2l8.9,8.9H9a3,3,0,1,0,0,6H21.6L12.7,41a2.9,2.9,0,0,0,0,4.2,3.049,3.049,0,0,0,2.1.9,2.878,2.878,0,0,0,2.1-.9L26,36.1V49a3,3,0,1,0,6,0V36.6l8.7,8.7a2.9,2.9,0,0,0,4.2,0,2.9,2.9,0,0,0,0-4.2L36,32.2H48.6a3,3,0,0,0,.1-6Z" transform="translate(0 95)" fill="#fff"/>
    </g>
    <g transform="matrix(1, 0, 0, 1, 684.29, 323)" filter="url(#그룹_294-2)">
      <path id="그룹_294-4" data-name="그룹 294" d="M29,16H26.2L28,14.2A2.97,2.97,0,0,0,23.8,10L22,11.8V9a3,3,0,0,0-6,0v2.8L14.2,10A2.97,2.97,0,0,0,10,14.2L11.8,16H9a3,3,0,0,0,0,6h2.8L10,23.8A2.9,2.9,0,0,0,10,28a3.049,3.049,0,0,0,2.1.9,3.049,3.049,0,0,0,2.1-.9L16,26.2V29a3,3,0,0,0,6,0V26.2L23.8,28A2.9,2.9,0,0,0,28,28a2.9,2.9,0,0,0,0-4.2L26.2,22H29a3,3,0,0,0,0-6Z" transform="translate(54.71 117)" fill="#fff"/>
    </g>
  </g>
</svg>
