<svg xmlns="http://www.w3.org/2000/svg" xmlns:xlink="http://www.w3.org/1999/xlink" width="164" height="164" viewBox="0 0 164 164">
  <defs>
    <filter id="타원_29" x="71.596" y="22.928" width="68.143" height="68.143" filterUnits="userSpaceOnUse">
      <feOffset dx="3" dy="3" input="SourceAlpha"/>
      <feGaussianBlur stdDeviation="3" result="blur"/>
      <feFlood flood-opacity="0.251"/>
      <feComposite operator="in" in2="blur"/>
      <feComposite in="SourceGraphic"/>
    </filter>
    <filter id="선_60" x="94.484" y="0" width="24" height="36" filterUnits="userSpaceOnUse">
      <feOffset dx="3" dy="3" input="SourceAlpha"/>
      <feGaussianBlur stdDeviation="3" result="blur-2"/>
      <feFlood flood-opacity="0.251"/>
      <feComposite operator="in" in2="blur-2"/>
      <feComposite in="SourceGraphic"/>
    </filter>
    <filter id="선_61" x="94.484" y="78" width="24" height="36" filterUnits="userSpaceOnUse">
      <feOffset dx="3" dy="3" input="SourceAlpha"/>
      <feGaussianBlur stdDeviation="3" result="blur-3"/>
      <feFlood flood-opacity="0.251"/>
      <feComposite operator="in" in2="blur-3"/>
      <feComposite in="SourceGraphic"/>
    </filter>
    <filter id="선_60-2" x="127.043" y="45" width="35.957" height="24" filterUnits="userSpaceOnUse">
      <feOffset dx="3" dy="3" input="SourceAlpha"/>
      <feGaussianBlur stdDeviation="3" result="blur-4"/>
      <feFlood flood-opacity="0.251"/>
      <feComposite operator="in" in2="blur-4"/>
      <feComposite in="SourceGraphic"/>
    </filter>
    <filter id="선_61-2" x="49" y="45" width="35.957" height="24" filterUnits="userSpaceOnUse">
      <feOffset dx="3" dy="3" input="SourceAlpha"/>
      <feGaussianBlur stdDeviation="3" result="blur-5"/>
      <feFlood flood-opacity="0.251"/>
      <feComposite operator="in" in2="blur-5"/>
      <feComposite in="SourceGraphic"/>
    </filter>
    <filter id="선_60-3" x="115.683" y="12.377" width="34.94" height="34.94" filterUnits="userSpaceOnUse">
      <feOffset dx="3" dy="3" input="SourceAlpha"/>
      <feGaussianBlur stdDeviation="3" result="blur-6"/>
      <feFlood flood-opacity="0.251"/>
      <feComposite operator="in" in2="blur-6"/>
      <feComposite in="SourceGraphic"/>
    </filter>
    <filter id="선_61-3" x="61.377" y="66.683" width="34.94" height="34.94" filterUnits="userSpaceOnUse">
      <feOffset dx="3" dy="3" input="SourceAlpha"/>
      <feGaussianBlur stdDeviation="3" result="blur-7"/>
      <feFlood flood-opacity="0.251"/>
      <feComposite operator="in" in2="blur-7"/>
      <feComposite in="SourceGraphic"/>
    </filter>
    <filter id="선_60-4" x="115.683" y="66.683" width="34.94" height="34.94" filterUnits="userSpaceOnUse">
      <feOffset dx="3" dy="3" input="SourceAlpha"/>
      <feGaussianBlur stdDeviation="3" result="blur-8"/>
      <feFlood flood-opacity="0.251"/>
      <feComposite operator="in" in2="blur-8"/>
      <feComposite in="SourceGraphic"/>
    </filter>
    <filter id="선_61-4" x="61.377" y="12.377" width="34.94" height="34.94" filterUnits="userSpaceOnUse">
      <feOffset dx="3" dy="3" input="SourceAlpha"/>
      <feGaussianBlur stdDeviation="3" result="blur-9"/>
      <feFlood flood-opacity="0.251"/>
      <feComposite operator="in" in2="blur-9"/>
      <feComposite in="SourceGraphic"/>
    </filter>
    <filter id="SC004_MAIN" x="0" y="43.8" width="164" height="120.2" filterUnits="userSpaceOnUse">
      <feOffset dx="3" dy="3" input="SourceAlpha"/>
      <feGaussianBlur stdDeviation="3" result="blur-10"/>
      <feFlood flood-opacity="0.251"/>
      <feComposite operator="in" in2="blur-10"/>
      <feComposite in="SourceGraphic"/>
    </filter>
  </defs>
  <g id="SC003_MAIN" transform="translate(-405 -52)">
    <g transform="matrix(1, 0, 0, 1, 405, 52)" filter="url(#타원_29)">
      <circle id="타원_29-2" data-name="타원 29" cx="25.071" cy="25.071" r="25.071" transform="translate(77.6 28.93)" fill="#fff"/>
    </g>
    <g transform="matrix(1, 0, 0, 1, 405, 52)" filter="url(#선_60)">
      <line id="선_60-5" data-name="선 60" y2="12" transform="translate(103.48 9)" fill="none" stroke="#fff" stroke-linecap="round" stroke-width="6"/>
    </g>
    <g transform="matrix(1, 0, 0, 1, 405, 52)" filter="url(#선_61)">
      <line id="선_61-5" data-name="선 61" y2="12" transform="translate(103.48 87)" fill="none" stroke="#fff" stroke-linecap="round" stroke-width="6"/>
    </g>
    <g transform="matrix(1, 0, 0, 1, 405, 52)" filter="url(#선_60-2)">
      <line id="선_60-6" data-name="선 60" y2="11.957" transform="translate(148 54) rotate(90)" fill="none" stroke="#fff" stroke-linecap="round" stroke-width="6"/>
    </g>
    <g transform="matrix(1, 0, 0, 1, 405, 52)" filter="url(#선_61-2)">
      <line id="선_61-6" data-name="선 61" y2="11.957" transform="translate(69.96 54) rotate(90)" fill="none" stroke="#fff" stroke-linecap="round" stroke-width="6"/>
    </g>
    <g transform="matrix(1, 0, 0, 1, 405, 52)" filter="url(#선_60-3)">
      <line id="선_60-7" data-name="선 60" y2="11.957" transform="translate(134.38 22.62) rotate(45)" fill="none" stroke="#fff" stroke-linecap="round" stroke-width="6"/>
    </g>
    <g transform="matrix(1, 0, 0, 1, 405, 52)" filter="url(#선_61-3)">
      <line id="선_61-7" data-name="선 61" y2="11.957" transform="translate(80.07 76.93) rotate(45)" fill="none" stroke="#fff" stroke-linecap="round" stroke-width="6"/>
    </g>
    <g transform="matrix(1, 0, 0, 1, 405, 52)" filter="url(#선_60-4)">
      <line id="선_60-8" data-name="선 60" y2="11.957" transform="translate(134.38 85.38) rotate(135)" fill="none" stroke="#fff" stroke-linecap="round" stroke-width="6"/>
    </g>
    <g transform="matrix(1, 0, 0, 1, 405, 52)" filter="url(#선_61-4)">
      <line id="선_61-8" data-name="선 61" y2="11.957" transform="translate(80.07 31.07) rotate(135)" fill="none" stroke="#fff" stroke-linecap="round" stroke-width="6"/>
    </g>
    <g transform="matrix(1, 0, 0, 1, 405, 52)" filter="url(#SC004_MAIN)">
      <path id="SC004_MAIN-2" data-name="SC004_MAIN" d="M122.64,46.643A21.926,21.926,0,0,0,102.2,16.85a21.788,21.788,0,0,0-12.159,3.7A36.5,36.5,0,0,0,21.9,38.75c0,.616.023,1.232.046,1.848a32.859,32.859,0,0,0,10.9,63.852H116.8a29.2,29.2,0,0,0,5.84-57.807Z" transform="translate(6 47.55)" fill="#fff"/>
    </g>
  </g>
</svg>
