<svg xmlns="http://www.w3.org/2000/svg" xmlns:xlink="http://www.w3.org/1999/xlink" width="156.586" height="161.882" viewBox="0 0 156.586 161.882">
  <defs>
    <filter id="SC004_MAIN" x="10.343" y="0" width="146.244" height="107.771" filterUnits="userSpaceOnUse">
      <feOffset dx="3" dy="3" input="SourceAlpha"/>
      <feGaussianBlur stdDeviation="3" result="blur"/>
      <feFlood flood-opacity="0.251"/>
      <feComposite operator="in" in2="blur"/>
      <feComposite in="SourceGraphic"/>
    </filter>
    <filter id="선_68" x="16.929" y="94.099" width="40.627" height="40.627" filterUnits="userSpaceOnUse">
      <feOffset dx="3" dy="3" input="SourceAlpha"/>
      <feGaussianBlur stdDeviation="3" result="blur-2"/>
      <feFlood flood-opacity="0.251"/>
      <feComposite operator="in" in2="blur-2"/>
      <feComposite in="SourceGraphic"/>
    </filter>
    <filter id="선_80" x="22.335" y="123.695" width="37.799" height="37.799" filterUnits="userSpaceOnUse">
      <feOffset dx="3" dy="3" input="SourceAlpha"/>
      <feGaussianBlur stdDeviation="3" result="blur-3"/>
      <feFlood flood-opacity="0.251"/>
      <feComposite operator="in" in2="blur-3"/>
      <feComposite in="SourceGraphic"/>
    </filter>
    <filter id="선_83" x="0" y="118.099" width="33.556" height="33.556" filterUnits="userSpaceOnUse">
      <feOffset dx="3" dy="3" input="SourceAlpha"/>
      <feGaussianBlur stdDeviation="3" result="blur-4"/>
      <feFlood flood-opacity="0.251"/>
      <feComposite operator="in" in2="blur-4"/>
      <feComposite in="SourceGraphic"/>
    </filter>
    <filter id="선_81" x="80.333" y="96.734" width="33.556" height="33.556" filterUnits="userSpaceOnUse">
      <feOffset dx="3" dy="3" input="SourceAlpha"/>
      <feGaussianBlur stdDeviation="3" result="blur-5"/>
      <feFlood flood-opacity="0.251"/>
      <feComposite operator="in" in2="blur-5"/>
      <feComposite in="SourceGraphic"/>
    </filter>
    <filter id="선_82" x="71.977" y="117.012" width="44.87" height="44.87" filterUnits="userSpaceOnUse">
      <feOffset dx="3" dy="3" input="SourceAlpha"/>
      <feGaussianBlur stdDeviation="3" result="blur-6"/>
      <feFlood flood-opacity="0.251"/>
      <feComposite operator="in" in2="blur-6"/>
      <feComposite in="SourceGraphic"/>
    </filter>
    <filter id="그룹_294" x="101.464" y="95.513" width="44" height="44" filterUnits="userSpaceOnUse">
      <feOffset dx="3" dy="3" input="SourceAlpha"/>
      <feGaussianBlur stdDeviation="3" result="blur-7"/>
      <feFlood flood-opacity="0.251"/>
      <feComposite operator="in" in2="blur-7"/>
      <feComposite in="SourceGraphic"/>
    </filter>
    <filter id="그룹_295" x="40.464" y="95.513" width="52" height="52" filterUnits="userSpaceOnUse">
      <feOffset dx="3" dy="3" input="SourceAlpha"/>
      <feGaussianBlur stdDeviation="3" result="blur-8"/>
      <feFlood flood-opacity="0.251"/>
      <feComposite operator="in" in2="blur-8"/>
      <feComposite in="SourceGraphic"/>
    </filter>
  </defs>
  <g id="SC006_MAIN" transform="translate(-674.536 -327.487)">
    <g transform="matrix(1, 0, 0, 1, 674.54, 327.49)" filter="url(#SC004_MAIN)">
      <path id="SC004_MAIN-2" data-name="SC004_MAIN" d="M107.725,41.244a19.259,19.259,0,0,0-17.954-26.17,19.139,19.139,0,0,0-10.68,3.246,32.064,32.064,0,0,0-59.854,15.99c0,.541.02,1.082.04,1.623a28.862,28.862,0,0,0,9.578,56.087H102.6a25.647,25.647,0,0,0,5.13-50.777Z" transform="translate(16.34 3.75)" fill="#fff"/>
    </g>
    <g transform="matrix(1, 0, 0, 1, 674.54, 327.49)" filter="url(#선_68)">
      <line id="선_68-2" data-name="선 68" y2="20" transform="translate(41.31 104.34) rotate(45)" fill="none" stroke="#fff" stroke-linecap="round" stroke-width="6"/>
    </g>
    <g transform="matrix(1, 0, 0, 1, 674.54, 327.49)" filter="url(#선_80)">
      <line id="선_80-2" data-name="선 80" y2="16" transform="translate(43.89 133.94) rotate(45)" fill="none" stroke="#fff" stroke-linecap="round" stroke-width="6"/>
    </g>
    <g transform="matrix(1, 0, 0, 1, 674.54, 327.49)" filter="url(#선_83)">
      <line id="선_83-2" data-name="선 83" y2="10" transform="translate(17.31 128.34) rotate(45)" fill="none" stroke="#fff" stroke-linecap="round" stroke-width="6"/>
    </g>
    <g transform="matrix(1, 0, 0, 1, 674.54, 327.49)" filter="url(#선_81)">
      <line id="선_81-2" data-name="선 81" y2="10" transform="translate(97.65 106.98) rotate(45)" fill="none" stroke="#fff" stroke-linecap="round" stroke-width="6"/>
    </g>
    <g transform="matrix(1, 0, 0, 1, 674.54, 327.49)" filter="url(#선_82)">
      <line id="선_82-2" data-name="선 82" y2="26" transform="translate(100.6 127.25) rotate(45)" fill="none" stroke="#fff" stroke-linecap="round" stroke-width="6"/>
    </g>
    <g transform="matrix(1, 0, 0, 1, 674.54, 327.49)" filter="url(#그룹_294)">
      <path id="그룹_294-2" data-name="그룹 294" d="M29,16H26.2L28,14.2A2.97,2.97,0,0,0,23.8,10L22,11.8V9a3,3,0,0,0-6,0v2.8L14.2,10A2.97,2.97,0,0,0,10,14.2L11.8,16H9a3,3,0,0,0,0,6h2.8L10,23.8A2.9,2.9,0,0,0,10,28a3.049,3.049,0,0,0,2.1.9,3.049,3.049,0,0,0,2.1-.9L16,26.2V29a3,3,0,0,0,6,0V26.2L23.8,28A2.9,2.9,0,0,0,28,28a2.9,2.9,0,0,0,0-4.2L26.2,22H29a3,3,0,0,0,0-6Z" transform="translate(101.46 95.51)" fill="#fff"/>
    </g>
    <g transform="matrix(1, 0, 0, 1, 674.54, 327.49)" filter="url(#그룹_295)">
      <path id="그룹_295-2" data-name="그룹 295" d="M37,20H30.2l4.7-4.7a2.97,2.97,0,0,0-4.2-4.2L26,15.8V9a3,3,0,0,0-6,0v6.8L15.3,11a2.97,2.97,0,0,0-4.2,4.2l4.7,4.7H9a3,3,0,0,0,0,6h6.8L11,30.7a2.9,2.9,0,0,0,0,4.2,2.9,2.9,0,0,0,4.2,0l4.7-4.7V37a3,3,0,0,0,6,0V30.2l4.7,4.7a2.9,2.9,0,0,0,4.2,0,2.9,2.9,0,0,0,0-4.2L30.2,26H37a3,3,0,0,0,0-6Z" transform="translate(40.46 95.51)" fill="#fff"/>
    </g>
  </g>
</svg>
