<svg xmlns="http://www.w3.org/2000/svg" xmlns:xlink="http://www.w3.org/1999/xlink" width="164" height="164" viewBox="0 0 164 164">
  <defs>
    <filter id="타원_29" x="32.5" y="33" width="98" height="98" filterUnits="userSpaceOnUse">
      <feOffset dx="3" dy="3" input="SourceAlpha"/>
      <feGaussianBlur stdDeviation="3" result="blur"/>
      <feFlood flood-opacity="0.251"/>
      <feComposite operator="in" in2="blur"/>
      <feComposite in="SourceGraphic"/>
    </filter>
    <filter id="선_60" x="70" y="0" width="24" height="42" filterUnits="userSpaceOnUse">
      <feOffset dx="3" dy="3" input="SourceAlpha"/>
      <feGaussianBlur stdDeviation="3" result="blur-2"/>
      <feFlood flood-opacity="0.251"/>
      <feComposite operator="in" in2="blur-2"/>
      <feComposite in="SourceGraphic"/>
    </filter>
    <filter id="선_61" x="70" y="122" width="24" height="42" filterUnits="userSpaceOnUse">
      <feOffset dx="3" dy="3" input="SourceAlpha"/>
      <feGaussianBlur stdDeviation="3" result="blur-3"/>
      <feFlood flood-opacity="0.251"/>
      <feComposite operator="in" in2="blur-3"/>
      <feComposite in="SourceGraphic"/>
    </filter>
    <filter id="선_60-2" x="122" y="70" width="42" height="24" filterUnits="userSpaceOnUse">
      <feOffset dx="3" dy="3" input="SourceAlpha"/>
      <feGaussianBlur stdDeviation="3" result="blur-4"/>
      <feFlood flood-opacity="0.251"/>
      <feComposite operator="in" in2="blur-4"/>
      <feComposite in="SourceGraphic"/>
    </filter>
    <filter id="선_61-2" x="0" y="70" width="42" height="24" filterUnits="userSpaceOnUse">
      <feOffset dx="3" dy="3" input="SourceAlpha"/>
      <feGaussianBlur stdDeviation="3" result="blur-5"/>
      <feFlood flood-opacity="0.251"/>
      <feComposite operator="in" in2="blur-5"/>
      <feComposite in="SourceGraphic"/>
    </filter>
    <filter id="선_60-3" x="105.527" y="19.26" width="39.213" height="39.213" filterUnits="userSpaceOnUse">
      <feOffset dx="3" dy="3" input="SourceAlpha"/>
      <feGaussianBlur stdDeviation="3" result="blur-6"/>
      <feFlood flood-opacity="0.251"/>
      <feComposite operator="in" in2="blur-6"/>
      <feComposite in="SourceGraphic"/>
    </filter>
    <filter id="선_61-3" x="19.26" y="105.527" width="39.213" height="39.213" filterUnits="userSpaceOnUse">
      <feOffset dx="3" dy="3" input="SourceAlpha"/>
      <feGaussianBlur stdDeviation="3" result="blur-7"/>
      <feFlood flood-opacity="0.251"/>
      <feComposite operator="in" in2="blur-7"/>
      <feComposite in="SourceGraphic"/>
    </filter>
    <filter id="선_60-4" x="105.527" y="105.527" width="39.213" height="39.213" filterUnits="userSpaceOnUse">
      <feOffset dx="3" dy="3" input="SourceAlpha"/>
      <feGaussianBlur stdDeviation="3" result="blur-8"/>
      <feFlood flood-opacity="0.251"/>
      <feComposite operator="in" in2="blur-8"/>
      <feComposite in="SourceGraphic"/>
    </filter>
    <filter id="선_61-4" x="19.26" y="19.26" width="39.213" height="39.213" filterUnits="userSpaceOnUse">
      <feOffset dx="3" dy="3" input="SourceAlpha"/>
      <feGaussianBlur stdDeviation="3" result="blur-9"/>
      <feFlood flood-opacity="0.251"/>
      <feComposite operator="in" in2="blur-9"/>
      <feComposite in="SourceGraphic"/>
    </filter>
    <filter id="SC004_MAIN" x="3" y="80.847" width="111.075" height="83.153" filterUnits="userSpaceOnUse">
      <feOffset dx="3" dy="3" input="SourceAlpha"/>
      <feGaussianBlur stdDeviation="3" result="blur-10"/>
      <feFlood flood-opacity="0.251"/>
      <feComposite operator="in" in2="blur-10"/>
      <feComposite in="SourceGraphic"/>
    </filter>
  </defs>
  <g id="SC002_MAIN" transform="translate(-231 -52)">
    <g transform="matrix(1, 0, 0, 1, 231, 52)" filter="url(#타원_29)">
      <circle id="타원_29-2" data-name="타원 29" cx="40" cy="40" r="40" transform="translate(38.5 39)" fill="#fff"/>
    </g>
    <g transform="matrix(1, 0, 0, 1, 231, 52)" filter="url(#선_60)">
      <line id="선_60-5" data-name="선 60" y2="18" transform="translate(79 9)" fill="none" stroke="#fff" stroke-linecap="round" stroke-width="6"/>
    </g>
    <g transform="matrix(1, 0, 0, 1, 231, 52)" filter="url(#선_61)">
      <line id="선_61-5" data-name="선 61" y2="18" transform="translate(79 131)" fill="none" stroke="#fff" stroke-linecap="round" stroke-width="6"/>
    </g>
    <g transform="matrix(1, 0, 0, 1, 231, 52)" filter="url(#선_60-2)">
      <line id="선_60-6" data-name="선 60" y2="18" transform="translate(149 79) rotate(90)" fill="none" stroke="#fff" stroke-linecap="round" stroke-width="6"/>
    </g>
    <g transform="matrix(1, 0, 0, 1, 231, 52)" filter="url(#선_61-2)">
      <line id="선_61-6" data-name="선 61" y2="18" transform="translate(27 79) rotate(90)" fill="none" stroke="#fff" stroke-linecap="round" stroke-width="6"/>
    </g>
    <g transform="matrix(1, 0, 0, 1, 231, 52)" filter="url(#선_60-3)">
      <line id="선_60-7" data-name="선 60" y2="18" transform="translate(128.5 29.5) rotate(45)" fill="none" stroke="#fff" stroke-linecap="round" stroke-width="6"/>
    </g>
    <g transform="matrix(1, 0, 0, 1, 231, 52)" filter="url(#선_61-3)">
      <line id="선_61-7" data-name="선 61" y2="18" transform="translate(42.23 115.77) rotate(45)" fill="none" stroke="#fff" stroke-linecap="round" stroke-width="6"/>
    </g>
    <g transform="matrix(1, 0, 0, 1, 231, 52)" filter="url(#선_60-4)">
      <line id="선_60-8" data-name="선 60" y2="18" transform="translate(128.5 128.5) rotate(135)" fill="none" stroke="#fff" stroke-linecap="round" stroke-width="6"/>
    </g>
    <g transform="matrix(1, 0, 0, 1, 231, 52)" filter="url(#선_61-4)">
      <line id="선_61-8" data-name="선 61" y2="18" transform="translate(42.23 42.23) rotate(135)" fill="none" stroke="#fff" stroke-linecap="round" stroke-width="6"/>
    </g>
    <g transform="matrix(1, 0, 0, 1, 231, 52)" filter="url(#SC004_MAIN)">
      <path id="SC004_MAIN-2" data-name="SC004_MAIN" d="M78.183,30.551A13.978,13.978,0,0,0,65.153,11.558,13.89,13.89,0,0,0,57.4,13.913a23.271,23.271,0,0,0-43.44,11.605c0,.393.015.785.029,1.178A20.947,20.947,0,0,0,20.942,67.4H74.46a18.614,18.614,0,0,0,3.723-36.852Z" transform="translate(9 84.6)" fill="#fff"/>
    </g>
  </g>
</svg>
