<svg xmlns="http://www.w3.org/2000/svg" width="33" height="33" viewBox="0 0 33 33">
  <g id="too_bad_icon" transform="translate(-427.5 -371.5)">
    <path id="패스_1" data-name="패스 1" d="M33,18A15,15,0,1,1,18,3,15,15,0,0,1,33,18Z" transform="translate(426 370)" fill="none" stroke="#fff" stroke-linecap="round" stroke-linejoin="round" stroke-width="3"/>
    <line id="선_87" data-name="선 87" x2="7" transform="translate(435.525 381.025) rotate(45)" fill="none" stroke="#fff" stroke-linecap="round" stroke-linejoin="round" stroke-width="3"/>
    <line id="선_89" data-name="선 89" x2="7" transform="translate(447.525 381.025) rotate(45)" fill="none" stroke="#fff" stroke-linecap="round" stroke-linejoin="round" stroke-width="3"/>
    <line id="선_88" data-name="선 88" x2="7" transform="translate(440.475 381.025) rotate(135)" fill="none" stroke="#fff" stroke-linecap="round" stroke-linejoin="round" stroke-width="3"/>
    <line id="선_91" data-name="선 91" x2="3" transform="translate(436.525 395.146) rotate(-45)" fill="none" stroke="#fff" stroke-linecap="round" stroke-linejoin="round" stroke-width="3"/>
    <line id="선_93" data-name="선 93" x2="3" transform="translate(441.525 395.146) rotate(-45)" fill="none" stroke="#fff" stroke-linecap="round" stroke-linejoin="round" stroke-width="3"/>
    <line id="선_95" data-name="선 95" x2="3" transform="translate(446.525 395.146) rotate(-45)" fill="none" stroke="#fff" stroke-linecap="round" stroke-linejoin="round" stroke-width="3"/>
    <line id="선_92" data-name="선 92" x2="3" transform="translate(441.475 395.146) rotate(-135)" fill="none" stroke="#fff" stroke-linecap="round" stroke-linejoin="round" stroke-width="3"/>
    <line id="선_94" data-name="선 94" x2="3" transform="translate(446.475 395.146) rotate(-135)" fill="none" stroke="#fff" stroke-linecap="round" stroke-linejoin="round" stroke-width="3"/>
    <line id="선_96" data-name="선 96" x2="3" transform="translate(451.475 395.146) rotate(-135)" fill="none" stroke="#fff" stroke-linecap="round" stroke-linejoin="round" stroke-width="3"/>
    <line id="선_90" data-name="선 90" x2="7" transform="translate(452.475 381.025) rotate(135)" fill="none" stroke="#fff" stroke-linecap="round" stroke-linejoin="round" stroke-width="3"/>
  </g>
</svg>
